<svg xmlns="http://www.w3.org/2000/svg" xmlns:svg="http://www.w3.org/2000/svg" id="svg1" width="927.747" height="217.081" version="1.1" viewBox="0 0 245.466 57.436"><defs id="defs1"><filter style="color-interpolation-filters:sRGB" id="filter39" width="1.057" height="1.2" x="-.028" y="-.1"><feGaussianBlur id="feGaussianBlur39" stdDeviation=".356"/></filter><filter style="color-interpolation-filters:sRGB" id="filter38" width="1.07" height="1.247" x="-.035" y="-.123"><feGaussianBlur id="feGaussianBlur38" stdDeviation=".54"/></filter><filter style="color-interpolation-filters:sRGB" id="filter34" width="1.04" height="1.142" x="-.02" y="-.071"><feGaussianBlur id="feGaussianBlur34" stdDeviation=".135"/></filter><filter style="color-interpolation-filters:sRGB" id="filter110" width="1.116" height="1.082" x="-.058" y="-.041"><feGaussianBlur id="feGaussianBlur110" stdDeviation=".457"/></filter><filter style="color-interpolation-filters:sRGB" id="filter111" width="1.014" height="1.091" x="-.007" y="-.046"><feGaussianBlur id="feGaussianBlur111" stdDeviation=".676"/></filter></defs><g id="layer1" transform="translate(54.024724,-82.837949)"><g id="g7" transform="translate(-6.5691883,-17.896314)"><g id="g110"><g id="g104" style="display:inline;filter:url(#filter111)" transform="translate(1.0583333,1.0583333)"><path id="path103" style="fill:#000;fill-opacity:1;stroke:none;stroke-width:1.15629;stroke-linecap:round;stroke-linejoin:round" d="m -46.024022,130.17617 c 0,4.51596 0,13.54515 0,13.54515 0,1.8392 1.490968,3.84247 3.33017,4.41609 20.461255,6.38158 42.28786589,7.97673 68.778625,5.4855 25.337817,-2.38281 51.880956,-8.16215 76.010557,-11.4321 25.56968,-3.4651 44.40558,-3.64132 61.52932,-1.17586 15.70521,2.26123 25.33492,6.03654 25.33492,6.03654 0,-6.7365 0,-20.20549 0,-20.20549 -20.43529,-6.95579 -42.31383,-9.04593 -68.77862,-6.86344 -25.337822,2.08955 -51.880961,7.82117 -76.01056,11.26309 -25.63005,3.65594 -44.34520947,4.17164 -61.529321,2.08009 -15.701075,-1.91105 -25.334921,-5.39351 -25.334921,-5.39351 -1.839202,-0.57379 -3.33017,0.40474 -3.33017,2.24394 z"/></g><path id="path100" style="display:inline;mix-blend-mode:normal;fill:#000;fill-opacity:1;stroke:none;stroke-width:.241293;stroke-linecap:round;stroke-linejoin:round;filter:url(#filter110)" d="m 188.90272,126.846 v 1.3963 h 5.2e-4 v 5.13302 c -1.8e-4,1e-5 -3.4e-4,0 -5.2e-4,0 v -5.13302 c -3.59529,0.65988 -11.31517,0.61737 -11.38638,2.42879 h -5.2e-4 -5.1e-4 v 20.19567 h 5.1e-4 v 0.0574 h 0.005 c 0.001,0.0308 -9e-5,0.0612 0.006,0.093 0.0264,0.15706 0.10626,0.32707 0.24702,0.5116 2.3e-4,3.8e-4 8e-4,5.6e-4 0.001,0.001 0.0422,0.0553 0.0914,0.11203 0.1447,0.17001 0.0806,0.0876 0.17677,0.17899 0.2837,0.27286 0.003,0.003 0.006,0.005 0.009,0.008 0.0215,0.0187 0.0437,0.0379 0.0661,0.0568 6.1e-4,5.2e-4 0.001,0.001 0.002,0.002 0.11677,0.0984 0.2427,0.19901 0.38913,0.30438 l 5.1e-4,5.1e-4 c 0.003,0.002 1.58139,1.30582 8.68785,1.25626 7.1129,-0.0496 9.08523,-1.25677 9.08523,-1.25677 l -8.2982,-3.77238 c 0.95624,-0.13551 1.72931,-0.30034 2.16782,-0.5271 0.12032,-0.0622 0.17364,-0.12646 0.18501,-0.19121 h 0.007 v -7.07657 l 5.93866,-8.63823 c 0,0 -1.30558,0.88682 -5.93866,1.16944 v -5.67304 h -0.007 c 0.0322,-0.39 -1.59371,-0.78769 -1.59526,-0.78807 z m 5.2e-4,16.25948 v 3.94601 h -5.2e-4 v -3.9455 z" transform="translate(0.52916558,0.52916666)"/></g><g id="g4" style="display:inline"><path id="rect1" style="fill:#05f;fill-opacity:1;stroke:#002b80;stroke-width:.25;stroke-linecap:round;stroke-linejoin:round;stroke-dasharray:none;stroke-opacity:1" d="m -46.024022,130.17617 c 0,4.51596 0,13.54515 0,13.54515 0,1.8392 1.490968,3.84247 3.33017,4.41609 20.461255,6.38158 42.28786589,7.97673 68.778625,5.4855 25.337817,-2.38281 51.880956,-8.16215 76.010557,-11.4321 25.56968,-3.4651 44.40558,-3.64132 61.52932,-1.17586 15.70521,2.26123 25.33492,6.03654 25.33492,6.03654 0,-6.7365 0,-20.20549 0,-20.20549 -20.43529,-6.95579 -42.31383,-9.04593 -68.77862,-6.86344 -25.337822,2.08955 -51.880961,7.82117 -76.01056,11.26309 -25.63005,3.65594 -44.34520947,4.17164 -61.529321,2.08009 -15.701075,-1.91105 -25.334921,-5.39351 -25.334921,-5.39351 -1.839202,-0.57379 -3.33017,0.40474 -3.33017,2.24394 z"/><path id="text1" style="font-style:normal;font-variant:normal;font-weight:400;font-stretch:normal;font-size:16.9333px;line-height:.9;font-family:'Helvetica Condensed';-inkscape-font-specification:'Helvetica Condensed, ';letter-spacing:0;fill:#fff;stroke:none;stroke-width:1;stroke-linecap:round;stroke-linejoin:round" d="m -12.136684,136.99846 c -1.373006,-0.12136 -2.375256,0.16169 -3.009636,0.87132 -0.628383,0.70414 -0.942578,2.05372 -0.942578,4.05438 0,0.89579 0,2.68685 0,2.68685 0,1.86288 0.300414,3.23435 0.901237,4.10916 0.605616,0.86886 1.687442,1.38694 3.241146,1.52238 1.316932,0.1148 2.2466716,-0.24384 2.7863931,-1.05393 0.5401893,-0.81078 0.8102864,-1.95666 0.8102864,-3.43369 -0.791152,-0.0518 -2.3729815,-0.17215 -2.3729815,-0.17215 0,1.04166 -0.09922,1.76961 -0.297656,2.18333 -0.19841,0.40814 -0.507147,0.59499 -0.926042,0.55847 -0.55116,-0.048 -0.97295,-0.28872 -1.265039,-0.71875 -0.286631,-0.42957 -0.429948,-1.11893 -0.429948,-2.06689 0,-1.37262 0,-4.11705 0,-4.11705 0,-1.76366 0.559487,-2.5879 1.67845,-2.4902 0.446524,0.039 0.749613,0.25384 0.909506,0.6473 0.159852,0.39335 0.239778,0.98115 0.239778,1.76378 0.777369,0.0624 2.3316409,0.17073 2.3316409,0.17073 0,-1.44397 -0.2866337,-2.52868 -0.8598959,-3.25852 -0.5737991,-0.73052 -1.504284,-1.14246 -2.794661,-1.25652 z m 92.248632,-8.48742 c -0.848844,0.14215 -1.546185,0.49931 -2.091862,1.07074 -0.545701,0.57146 -0.818554,1.28993 -0.818554,2.1551 0,0.50147 0.129536,1.02512 0.388606,1.57102 0.195721,0.33625 0.587045,1.00861 0.587045,1.00861 -1.587496,1.36421 -2.38125,2.81079 -2.38125,4.33724 0,1.08559 0.314194,1.93877 0.942578,2.55986 0.633928,0.62018 1.466204,0.84319 2.497005,0.67003 1.124464,-0.1889 2.080852,-0.7039 2.869076,-1.54564 0.154371,0.26374 0.46302,0.79113 0.46302,0.79113 0.851798,-0.14111 2.554883,-0.42037 2.554883,-0.42037 -0.507219,-0.76872 -1.521354,-2.30459 -1.521354,-2.30459 0.749651,-1.27525 1.124479,-2.75543 1.124479,-4.4417 -0.631268,0.10336 -1.893424,0.31168 -1.893424,0.31168 0,0.30309 -0.03032,0.64425 -0.09095,1.02351 -0.05512,0.37833 -0.157097,0.82229 -0.305924,1.3319 -0.523759,-0.81986 -1.570964,-2.45813 -1.570964,-2.45813 1.295352,-1.05389 1.943034,-2.20766 1.943034,-3.46409 0,-0.777 -0.261829,-1.36749 -0.785482,-1.77095 -0.518141,-0.4099 -1.154797,-0.55181 -1.909962,-0.42535 z m -110.463541,6.01644 c 0,0.66981 0,2.00904 0,2.00904 0.733263,0.15643 2.199349,0.45111 2.199349,0.45111 0,-0.66981 0,-2.00903 0,-2.00903 -0.733116,-0.14439 -1.466233,-0.29472 -2.199349,-0.45112 z m 49.394401,2.83345 c 0,0.66972 0,2.00875 0,2.00875 0.733263,-0.0503 2.199349,-0.15998 2.199349,-0.15998 0,-0.66971 0,-2.00874 0,-2.00874 -0.733116,0.0564 -1.466233,0.10973 -2.199349,0.15997 z m 9.409245,-0.80625 c 0,0.66971 0,2.00871 0,2.00871 0.733263,-0.0746 2.199349,-0.23137 2.199349,-0.23137 0,-0.6697 0,-2.0087 0,-2.0087 -0.733116,0.0796 -1.466233,0.15677 -2.199349,0.23136 z m 21.637955,-2.82198 c 0,0.66969 0,2.00866 0,2.00866 0.733263,-0.11242 2.199349,-0.34088 2.199349,-0.34088 0,-0.66968 0,-2.00865 0,-2.00865 -0.733116,0.11481 -1.466233,0.22848 -2.199349,0.34087 z m 73.380532,-10.63705 c 0,0.66971 0,2.00874 0,2.00874 0.73326,-0.0515 2.19935,-0.14496 2.19935,-0.14496 0,-0.66972 0,-2.00875 0,-2.00875 -0.73312,0.0451 -1.46623,0.0935 -2.19935,0.14497 z m -161.288344,9.64865 c -1.014439,3.95846 -3.042709,11.83537 -3.042709,11.83537 0.851798,0.25259 2.554883,0.73071 2.554883,0.73071 0.21226,-1.02207 0.636654,-3.06724 0.636654,-3.06724 0.920713,0.24897 2.761588,0.71623 2.761588,0.71623 0.209504,1.13259 0.628386,3.39552 0.628386,3.39552 0.851798,0.20737 2.554883,0.59665 2.554883,0.59665 -0.970333,-4.45098 -2.910417,-13.38306 -2.910417,-13.38306 -1.061089,-0.26134 -2.122179,-0.53593 -3.183268,-0.82418 z m 52.280013,4.91345 c 0,1.37251 0,4.11672 0,4.11672 -0.3419,-0.77683 -0.997556,-1.14058 -1.967839,-1.10027 -0.711121,0.0296 -1.26774,0.3057 -1.670182,0.83204 -0.396874,0.52057 -0.595313,1.42762 -0.595313,2.72272 0,1.08589 0,3.25703 0,3.25703 0,1.23448 0.201195,2.08538 0.603581,2.55108 0.407822,0.46541 0.98951,0.6844 1.744597,0.65274 0.870827,-0.0365 1.499396,-0.5085 1.885156,-1.40935 0,0.35829 0,1.07465 0,1.07465 0.733263,-0.0367 2.199349,-0.12006 2.199349,-0.12006 0,-4.23328 0,-12.6973 0,-12.6973 -0.733116,0.0433 -1.466233,0.0834 -2.199349,0.12 z m 76.935872,-10.7138 c 0,4.23308 0,12.69665 0,12.69665 0.791152,-0.12304 2.372982,-0.36475 2.372982,-0.36475 0,-1.94015 0,-5.81931 0,-5.81931 1.105408,-0.16783 3.31556,-0.49387 3.31556,-0.49387 0,1.94017 0,5.81933 0,5.81933 0.791152,-0.11546 2.372982,-0.34082 2.372982,-0.34082 0,-4.23309 0,-12.69675 0,-12.69675 -0.791152,0.11176 -2.372982,0.34086 -2.372982,0.34086 0,1.67284 0,5.01751 0,5.01751 -1.105408,0.16134 -3.31556,0.49388 -3.31556,0.49388 0,-1.67284 0,-5.0175 0,-5.0175 -0.790994,0.1201 -1.581988,0.24174 -2.372982,0.36477 z m 57.885869,-4.14193 c 0,4.23353 0,12.69806 0,12.69806 0.79115,0.0426 2.37299,0.14402 2.37299,0.14402 0,-4.23356 0,-12.69816 0,-12.69816 -0.791,-0.0535 -1.58199,-0.10141 -2.37299,-0.14392 z M 23.639943,137.55994 c 0,0.88192 0,2.64524 0,2.64524 -0.297716,0.0255 -0.892969,0.075 -0.892969,0.075 0,0.53742 0,1.61194 0,1.61194 0.297716,-0.0245 0.892969,-0.075 0.892969,-0.075 0,2.11937 0,6.35682 0,6.35682 0,0.61722 0.168122,1.0411 0.504362,1.27073 0.336169,0.22958 0.826896,0.31579 1.471745,0.25617 0.402376,-0.0372 0.785493,-0.0982 1.149284,-0.18286 0,-0.57049 0,-1.71112 0,-1.71112 -0.115753,0.0276 -0.220489,0.046 -0.314193,0.0549 -0.29764,0.0283 -0.47406,-0.0213 -0.529167,-0.14845 -0.05512,-0.12711 -0.08268,-0.25405 -0.08268,-0.3808 0,-1.90439 0,-5.71203 0,-5.71203 0.308742,-0.0288 0.926042,-0.0877 0.926042,-0.0877 0,-0.53742 0,-1.61193 0,-1.61193 -0.308742,0.0297 -0.926042,0.0877 -0.926042,0.0877 0,-0.88192 0,-2.64523 0,-2.64523 -0.733117,0.0683 -1.466234,0.1339 -2.199351,0.19663 z m 95.018487,-13.52945 c 0,0.88193 0,2.64524 0,2.64524 -0.29772,0.0262 -0.89297,0.0798 -0.89297,0.0798 0,0.53742 0,1.61193 0,1.61193 0.29772,-0.0271 0.89297,-0.0798 0.89297,-0.0798 0,2.11937 0,6.35682 0,6.35682 0,0.61722 0.16812,1.04043 0.50436,1.2705 0.33634,0.23013 0.82674,0.31782 1.47175,0.26571 0.40239,-0.0325 0.78548,-0.0874 1.14928,-0.16482 0,-0.57049 0,-1.71114 0,-1.71114 -0.11575,0.0254 -0.22048,0.0418 -0.31419,0.049 -0.29767,0.0231 -0.47402,-0.0288 -0.52917,-0.15674 -0.0551,-0.12788 -0.0827,-0.25517 -0.0827,-0.38192 0,-1.9044 0,-5.71207 0,-5.71207 0.30874,-0.0247 0.92604,-0.0725 0.92604,-0.0725 0,-0.53742 0,-1.61194 0,-1.61194 -0.30874,0.0236 -0.92604,0.0725 -0.92604,0.0725 0,-0.88193 0,-2.64525 0,-2.64525 -0.73311,0.0587 -1.46622,0.12024 -2.19933,0.18464 z m -38.604359,6.1765 c 0.242533,-0.0406 0.440973,0.0199 0.595312,0.18144 0.15434,0.16158 0.231511,0.39117 0.231511,0.68875 0,0.48494 -0.325219,1.03509 -0.975651,1.65108 -0.148828,-0.25059 -0.297657,-0.51769 -0.446485,-0.8013 -0.148827,-0.28914 -0.223242,-0.54114 -0.223242,-0.75605 0,-0.55107 0.272853,-0.87252 0.818555,-0.96392 z m -116.284375,5.33957 c 0.319769,1.82215 0.959114,5.46166 0.959114,5.46166 -0.675374,-0.1697 -2.025716,-0.5253 -2.025716,-0.5253 8.99e-4,-0.004 1.065703,-4.9322 1.066602,-4.93636 z m 14.824935,3.54832 c -0.567801,-0.0845 -1.036235,0.0161 -1.405599,0.30474 -0.369327,0.28866 -0.67247,0.7104 -0.909505,1.26658 0,-0.5623 0,-1.68656 0,-1.68656 -0.71121,-0.11735 -2.133204,-0.36813 -2.133204,-0.36813 0,3.17537 0,9.52419 0,9.52419 0.733263,0.1321 2.199349,0.37894 2.199349,0.37894 0,-1.86882 0,-5.60533 0,-5.60533 0,-1.06926 0.59256,-1.50276 1.77767,-1.32247 0.14883,0.0226 0.305922,0.0543 0.471289,0.0957 0,-0.86257 0,-1.72513 0,-2.58769 z m 18.0743486,1.64151 c -1.1358181,-0.0418 -1.9813025,0.20057 -2.5383463,0.74012 -0.5567258,0.53923 -0.8350912,1.75205 -0.8350912,3.64243 0,0.36657 0,1.0995 0,1.0995 0,1.68096 0.2342679,2.84638 0.7027995,3.49342 0.4680093,0.64081 1.3592719,0.99582 2.670638,1.04401 1.2672609,0.0466 2.1392472,-0.2399 2.61276046,-0.84029 0.47404373,-0.60106 0.71106771,-1.81779 0.71106771,-3.64751 0,-0.38035 0,-1.14082 0,-1.14082 0,-1.67541 -0.25907272,-2.81505 -0.77721354,-3.42213 -0.51306513,-0.60748 -1.36106883,-0.92513 -2.54661463,-0.96873 z m 9.4671224,0.1106 c -0.9316564,0.0115 -1.6094444,0.45462 -2.0339843,1.3376 0,-0.3583 0,-1.07467 0,-1.07467 -0.733263,0.002 -2.199349,-0.007 -2.199349,-0.007 0,3.17508 0,9.52332 0,9.52332 0.733263,0.006 2.199349,0.007 2.199349,0.007 0,-2.12773 0,-6.38191 0,-6.38191 0,-1.13529 0.3638042,-1.70282 1.0914062,-1.70843 0.3583156,-0.003 0.6035544,0.11293 0.7358724,0.34845 0.1378034,0.23543 0.2067057,0.63134 0.2067057,1.18797 0,2.18008 0,6.53894 0,6.53894 0.733263,-0.009 2.199349,-0.0387 2.199349,-0.0387 0,-2.45567 0,-7.36556 0,-7.36556 0,-0.7936 -0.2039509,-1.38662 -0.611849,-1.78082 -0.4024489,-0.39988 -0.9314927,-0.59423 -1.5875,-0.58615 z m 30.046745,-2.21734 c -1.135634,0.14099 -1.981487,0.52489 -2.538347,1.15795 -0.556725,0.63291 -0.835091,1.8935 -0.835091,3.78371 0,0.36654 0,1.0994 0,1.0994 0,1.6808 0.234268,2.80587 0.7028,3.3738 0.4683,0.56214 1.35898,0.76662 2.670638,0.60376 1.267524,-0.15739 2.138984,-0.57738 2.61276,-1.25067 0.474044,-0.67367 0.711068,-1.92589 0.711068,-3.75546 0,-0.38032 0,-1.14073 0,-1.14073 0,-1.67527 -0.259073,-2.77594 -0.777214,-3.30345 -0.512847,-0.52846 -1.361286,-0.71548 -2.546614,-0.56831 z m 9.467122,-1.28194 c -0.931588,0.1356 -1.609513,0.67273 -2.033984,1.61459 0,-0.35827 0,-1.07459 0,-1.07459 -0.733263,0.10377 -2.199349,0.30613 -2.199349,0.30613 0,3.17483 0,9.52258 0,9.52258 0.733263,-0.10032 2.199349,-0.30616 2.199349,-0.30616 0,-2.12756 0,-6.38143 0,-6.38143 0,-1.13521 0.363804,-1.75391 1.091406,-1.85849 0.3583,-0.0515 0.60357,0.0314 0.735872,0.24914 0.137804,0.21697 0.206706,0.60369 0.206706,1.16028 0,2.17993 0,6.53848 0,6.53848 0.733263,-0.10674 2.199349,-0.32465 2.199349,-0.32465 0,-2.45551 0,-7.36506 0,-7.36506 0,-0.79355 -0.203951,-1.36084 -0.611849,-1.70256 -0.402414,-0.34806 -0.931528,-0.47374 -1.5875,-0.37826 z m 13.171289,-2.05472 c -0.931565,0.15306 -1.609536,0.70412 -2.033984,1.65472 0,-0.35827 0,-1.07459 0,-1.07459 -0.733263,0.11897 -2.199349,0.35408 -2.199349,0.35408 0,3.1748 0,9.52247 0,9.52247 0.733263,-0.11709 2.199349,-0.3541 2.199349,-0.3541 0,-2.12754 0,-6.38136 0,-6.38136 0,-1.13519 0.363804,-1.76163 1.091406,-1.88051 0.358295,-0.0585 0.603575,0.0197 0.735873,0.23493 0.137803,0.21435 0.206705,0.59979 0.206705,1.15637 0,2.17991 0,6.53841 0,6.53841 0.733263,-0.12048 2.199349,-0.3635 2.199349,-0.3635 0,-2.45549 0,-7.365 0,-7.365 0,-0.79354 -0.203951,-1.3575 -0.611849,-1.6922 -0.402402,-0.34113 -0.931539,-0.4575 -1.5875,-0.34972 z m 6.54017,-1.09115 c -0.771703,0.1303 -1.344964,0.47743 -1.719792,1.04185 -0.369313,0.5635 -0.553971,1.44032 -0.553971,2.63062 0,1.14645 0,3.43865 0,3.43865 0,2.19324 0.722096,3.16919 2.166276,2.92541 0.953579,-0.16096 1.642642,-0.7132 2.067057,-1.65582 0,0.39134 0,1.17377 0,1.17377 0,0.99743 -0.344512,1.55464 -1.033529,1.67124 -0.03308,0.006 -0.09922,0.0168 -0.09922,0.0168 -0.485068,0.0821 -0.741384,-0.0538 -0.768945,-0.4073 -0.733263,0.12383 -2.199349,0.37019 -2.199349,0.37019 0.03858,0.68237 0.283877,1.16753 0.735873,1.45523 0.451987,0.28219 1.256782,0.32583 2.414323,0.1299 1.063803,-0.18006 1.854879,-0.60661 2.372981,-1.27875 0.518141,-0.6777 0.777214,-1.58971 0.777214,-2.73592 0,-3.07831 0,-9.2331 0,-9.2331 -0.766343,0.13034 -2.298568,0.39042 -2.298568,0.39042 0,0.36102 0,1.08284 0,1.08284 -0.314208,-0.83399 -0.934297,-1.17237 -1.86035,-1.01602 z M 104.7182,127.9583 c -2.15525,0.27875 -3.23288,1.61538 -3.23288,3.985 0,0.86261 0,2.5873 0,2.5873 0,1.38319 0.28112,2.33638 0.84336,2.86115 0.56246,0.52498 1.45224,0.7056 2.67064,0.54888 2.03398,-0.26162 3.05097,-1.5268 3.05097,-3.81928 -0.73326,0.0885 -2.19934,0.27191 -2.19934,0.27191 0,0.14883 0,0.44638 0,0.44638 0,0.87069 -0.34452,1.3492 -1.03353,1.43813 -0.3969,0.0512 -0.68625,-0.0321 -0.86817,-0.25073 -0.17639,-0.21933 -0.26458,-0.58792 -0.26458,-1.10593 0,-0.45748 0,-1.37218 0,-1.37218 1.4555,-0.19188 4.36562,-0.55179 4.36562,-0.55179 0,-0.4878 0,-1.46311 0,-1.46311 0,-1.6808 -0.28112,-2.73281 -0.84335,-3.15412 -0.56212,-0.42122 -1.39195,-0.56347 -2.48874,-0.42161 z m 8.47493,-1.00027 c -1.13523,0.12014 -1.97913,0.44113 -2.53007,0.95528 -0.54571,0.50826 -0.81856,1.32821 -0.81856,2.45793 0.70018,-0.0811 2.10013,-0.23672 2.10013,-0.23672 0,-0.52904 0.0827,-0.89634 0.24805,-1.10171 0.17081,-0.2059 0.50166,-0.33566 0.99219,-0.38759 0.39132,-0.0414 0.65323,-0.002 0.78548,0.11621 0.1378,0.11801 0.2067,0.33964 0.2067,0.66479 0,0.34167 -0.12402,0.61611 -0.37207,0.82374 -0.2482,0.20226 -0.65303,0.43997 -1.21543,0.71552 -1.01939,0.52844 -1.74495,1.04121 -2.17454,1.53074 -0.42444,0.48929 -0.63666,1.16437 -0.63666,2.02405 0,1.89021 0.84061,2.73467 2.52181,2.55219 0.35829,-0.0389 0.7028,-0.17488 1.03353,-0.40815 0.33624,-0.23933 0.66422,-0.61505 0.98392,-1.12719 -0.0221,0.13452 -0.0331,0.24311 -0.0331,0.32577 0,0.29207 0.0441,0.5383 0.13229,0.73872 0.70018,-0.0714 2.10013,-0.20706 2.10013,-0.20706 -0.11575,-0.38026 -0.17363,-0.80731 -0.17363,-1.28124 0,-1.92092 0,-5.76162 0,-5.76162 0,-0.96991 -0.24805,-1.64084 -0.74414,-2.01095 -0.49035,-0.37049 -1.29284,-0.50052 -2.40606,-0.38271 0,0 3e-5,0 3e-5,0 z m 19.00866,-1.36935 c -0.93144,0.0315 -1.60966,0.50089 -2.03398,1.40056 0,-0.35828 0,-1.07465 0,-1.07465 -0.73326,0.0314 -2.19935,0.10445 -2.19935,0.10445 0,3.17498 0,9.52301 0,9.52301 0.73326,-0.0382 2.19935,-0.1044 2.19935,-0.1044 0,-2.12768 0,-6.38177 0,-6.38177 0,-1.13526 0.3638,-1.71935 1.0914,-1.74699 0.35827,-0.0136 0.60361,0.0964 0.73588,0.32871 0.1378,0.2322 0.2067,0.6267 0.2067,1.18331 0,2.18006 0,6.53887 0,6.53887 0.73326,-0.0248 2.19935,-0.0633 2.19935,-0.0633 0,-2.45568 0,-7.36556 0,-7.36556 0,-0.7936 -0.20395,-1.387 -0.61185,-1.77848 -0.40233,-0.39709 -0.9316,-0.58596 -1.5875,-0.5638 z m 6.54017,-0.12144 c -0.77158,0.002 -1.34508,0.25884 -1.71979,0.76442 -0.36931,0.50566 -0.55397,1.35446 -0.55397,2.54485 0,1.14654 0,3.43893 0,3.43893 0,2.19342 0.72209,3.2762 2.16627,3.2714 0.95372,-0.003 1.64251,-0.43432 2.06706,-1.30231 0,0.39137 0,1.17388 0,1.17388 0,0.99752 -0.34451,1.49293 -1.03353,1.49166 -0.0331,-6e-5 -0.0992,-1.6e-4 -0.0992,-1.6e-4 -0.48506,-6.6e-4 -0.74138,-0.17873 -0.76894,-0.53689 -0.73326,0.002 -2.19935,0.0174 -2.19935,0.0174 0.0386,0.68838 0.28388,1.21113 0.73587,1.57048 0.45264,0.35433 1.25614,0.52563 2.41433,0.52826 1.06407,0.002 1.85461,-0.27954 2.37298,-0.85649 0.51814,-0.5822 0.77721,-1.44489 0.77721,-2.59121 0,-3.07862 0,-9.23403 0,-9.23403 -0.76634,-0.0142 -2.29857,-0.0288 -2.29857,-0.0288 0,0.36106 0,1.08295 0,1.08295 -0.31407,-0.88903 -0.93443,-1.33701 -1.86035,-1.3344 0,0 -2e-5,0 -2e-5,0 z m 19.33112,0.96452 c -0.93139,-0.0999 -1.60971,0.27635 -2.03398,1.11782 0,-0.35831 0,-1.07473 0,-1.07473 -0.73326,-0.0692 -2.19935,-0.19248 -2.19935,-0.19248 0,3.1752 0,9.52368 0,9.52368 0.73326,0.0592 2.19935,0.19255 2.19935,0.19255 0,-2.12783 0,-6.38223 0,-6.38223 0,-1.13535 0.3638,-1.66997 1.0914,-1.59633 0.35826,0.0363 0.60361,0.18076 0.73588,0.43169 0.1378,0.2516 0.2067,0.65585 0.2067,1.21251 0,2.18023 0,6.53936 0,6.53936 0.73326,0.0786 2.19935,0.25151 2.19935,0.25151 0,-2.45586 0,-7.36613 0,-7.36613 0,-0.79366 -0.20395,-1.41684 -0.61185,-1.86711 -0.40231,-0.45504 -0.93162,-0.71979 -1.5875,-0.79011 z m 6.99492,0.91096 c -1.97885,-0.30444 -2.96829,0.69788 -2.96829,2.94659 0,1.05567 0,3.16638 0,3.16638 0,2.32035 1.00597,3.60448 3.0179,3.91477 2.01193,0.3103 3.01791,-0.5306 3.01791,-2.58644 0,-0.29493 0,-0.88462 0,-0.88462 -0.73326,-0.12866 -2.19935,-0.36873 -2.19935,-0.36873 0,0.25909 0,0.77713 0,0.77713 0,1.00312 -0.25356,1.46346 -0.76068,1.38505 -0.58429,-0.0904 -0.87643,-0.63442 -0.87643,-1.63753 0,-1.09151 0,-3.27388 0,-3.27388 0,-0.11026 0,-0.3307 0,-0.3307 0,-1.02516 0.28112,-1.49679 0.84336,-1.41 0.52916,0.0817 0.79375,0.40857 0.79375,0.97627 0,0.34454 0,1.03343 0,1.03343 0.73326,0.11725 2.19935,0.36871 2.19935,0.36871 0,-0.26461 0,-0.79368 0,-0.79368 0,-0.84329 -0.25632,-1.56139 -0.76895,-2.15007 -0.51232,-0.59384 -1.27913,-0.97585 -2.29857,-1.13268 z m -195.419593,10.38434 c 0,3.17543 0,9.52436 0,9.52436 0.733263,0.15639 2.199349,0.45101 2.199349,0.45101 0,-3.17539 0,-9.52427 0,-9.52427 -0.733116,-0.14438 -1.466233,-0.2947 -2.199349,-0.4511 z m 49.394401,2.83298 c 0,3.17495 0,9.52292 0,9.52292 0.733263,-0.0503 2.199349,-0.16002 2.199349,-0.16002 0,-3.17493 0,-9.52288 0,-9.52288 -0.733116,0.0564 -1.466233,0.10973 -2.199349,0.15998 z m 9.409245,-0.80631 c 0,3.17489 0,9.52276 0,9.52276 0.733263,-0.0746 2.199349,-0.23141 2.199349,-0.23141 0,-3.17487 0,-9.52272 0,-9.52272 -0.733116,0.0796 -1.466233,0.15677 -2.199349,0.23137 z m 21.637955,-2.82206 c 0,3.1748 0,9.52249 0,9.52249 0.733263,-0.11242 2.199349,-0.3409 2.199349,-0.3409 0,-3.17479 0,-9.52247 0,-9.52247 -0.733116,0.11481 -1.466233,0.22848 -2.199349,0.34088 z m 73.380532,-10.63692 c 0,3.17495 0,9.52292 0,9.52292 0.73326,-0.0515 2.19935,-0.14491 2.19935,-0.14491 0,-3.17495 0,-9.52296 0,-9.52296 -0.73312,0.0451 -1.46623,0.0935 -2.19935,0.14495 z m -126.7684874,16.1293 c 0.727602,0.0266 1.0914062,0.54369 1.0914062,1.55775 0,1.17138 0,3.51342 0,3.51342 0,0.62277 -0.071658,1.04499 -0.2149739,1.2664 -0.1377357,0.22148 -0.4382854,0.3251 -0.901237,0.3081 -0.4464188,-0.0164 -0.7552298,-0.13126 -0.9260417,-0.34225 -0.1708762,-0.21107 -0.2563151,-0.65022 -0.2563151,-1.31709 0,-1.16862 0,-3.50517 0,-3.50517 0,-0.54561 0.093707,-0.93278 0.2811198,-1.16195 0.1929691,-0.22898 0.5015629,-0.33474 0.9260417,-0.31921 z m 16.6935544,-0.10268 c 0.711066,-0.0323 1.066602,0.51948 1.066602,1.66026 0,1.01423 0,3.04207 0,3.04207 0,1.26202 -0.363804,1.91209 -1.091406,1.94509 -0.628384,0.0285 -0.942579,-0.45792 -0.942579,-1.45541 0,-1.14652 0,-3.43889 0,-3.43889 0,-0.14331 0,-0.42985 0,-0.42985 0,-0.85422 0.322463,-1.29396 0.967383,-1.32327 z m 22.820313,-2.00953 c 0.727602,-0.0904 1.091406,0.36986 1.091406,1.38384 0,1.17127 0,3.51312 0,3.51312 0,0.62272 -0.07166,1.05617 -0.214974,1.30025 -0.13777,0.24332 -0.43825,0.39439 -0.901237,0.45189 -0.446453,0.0554 -0.755195,-0.009 -0.926042,-0.19198 -0.170876,-0.1831 -0.256315,-0.60814 -0.256315,-1.27495 0,-1.16852 0,-3.50486 0,-3.50486 0,-0.54557 0.09371,-0.94814 0.28112,-1.20794 0.192945,-0.26049 0.501587,-0.41663 0.926042,-0.46937 z m 30.005403,-4.56908 c 0.666969,-0.11285 1.000456,0.42018 1.000456,1.59946 0,0.99487 0,2.98402 0,2.98402 0,1.26193 -0.338999,1.95046 -1.016992,2.06517 -0.611847,0.10353 -0.917774,-0.3932 -0.917774,-1.48981 0,-1.10511 0,-3.31467 0,-3.31467 0,-0.15157 0,-0.45462 0,-0.45462 0,-0.82109 0.311439,-1.28416 0.93431,-1.38955 z M 104.7182,129.6446 c 0.40788,-0.0528 0.69731,-0.001 0.86816,0.15316 0.17639,0.14841 0.26459,0.44314 0.26459,0.884 0,0.30039 0,0.901 0,0.901 -0.72224,0.0914 -2.16628,0.27987 -2.16628,0.27987 0,-0.19291 0,-0.57862 0,-0.57862 0,-0.54006 0.0689,-0.93491 0.20671,-1.18446 0.13778,-0.24951 0.41343,-0.40149 0.82682,-0.45495 z m 34.88366,-2.49152 c 0.66697,9.9e-4 1.00045,0.59372 1.00045,1.77311 0,0.99497 0,2.9843 0,2.9843 0,1.26206 -0.339,1.88999 -1.01699,1.88902 -0.61185,-8.7e-4 -0.91777,-0.54756 -0.91777,-1.64427 0,-1.1052 0,-3.31495 0,-3.31495 0,-0.15159 0,-0.45467 0,-0.45467 0,-0.82116 0.31144,-1.23347 0.93431,-1.23254 z m -60.415953,8.64685 c 0.66986,1.05595 2.009179,3.16845 2.009179,3.16845 -0.479554,0.52631 -1.000458,0.83659 -1.562695,0.93091 -0.490584,0.0823 -0.890209,-0.0902 -1.198893,-0.51759 -0.303168,-0.42837 -0.454753,-0.91253 -0.454753,-1.45257 0,-0.45738 0.137805,-0.88568 0.413412,-1.28479 0.275607,-0.40461 0.540191,-0.68608 0.79375,-0.84441 z m 34.958073,-4.17975 c 0,0.69726 0,2.09137 0,2.09137 0,0.98644 -0.37207,1.5173 -1.11621,1.59642 -0.70004,0.0744 -1.05007,-0.29448 -1.05007,-1.11007 0,-0.39127 0.0551,-0.68664 0.16537,-0.88604 0.11021,-0.20483 0.34454,-0.43988 0.7028,-0.7041 0.4327,-0.33006 0.86541,-0.65926 1.29811,-0.98758 z m 56.35625,4.20245 c 0,0.74423 0,2.23225 0,2.23225 0.74429,0.14334 2.23242,0.44834 2.23242,0.44834 0,-0.74423 0,-2.23226 0,-2.23226 -0.74414,-0.15562 -1.48828,-0.30501 -2.23242,-0.44833 z"/></g><g id="g109" style="display:inline"><path id="path107" style="display:inline;fill:#0040bf;fill-opacity:1;stroke:#002b80;stroke-width:.25;stroke-linecap:round;stroke-linejoin:round;stroke-dasharray:none;stroke-opacity:1" d="m 188.90272,126.846 v 1.3963 h 5.2e-4 v 18.80919 h -5.2e-4 V 128.2423 c -3.5953,0.65988 -11.31517,0.61736 -11.38638,2.42879 h -0.001 v 20.19567 h 0.002 c -0.0217,0.39477 0.32055,0.87779 1.15239,1.4764 v -2.46187 c -3.6e-4,1.3e-4 -6.8e-4,3.9e-4 -10e-4,5.2e-4 v -17.74517 c 4.3e-4,3.1e-4 6.1e-4,7.2e-4 10e-4,0.001 v 17.74362 c 2.80356,-1.01544 9.89126,-0.93164 11.64321,-1.83761 0.12032,-0.0622 0.17364,-0.12646 0.18501,-0.19121 h 0.007 v -20.2184 h -0.007 c 0.0322,-0.39019 -1.59577,-0.78807 -1.59577,-0.78807 z" transform="translate(-1.0875e-6)"/><path id="rect113" style="display:inline;fill:#0040bf;fill-opacity:1;stroke:none;stroke-width:1.06275;stroke-linecap:round;stroke-linejoin:round;stroke-dasharray:none;stroke-opacity:1" d="m 182.91549,127.33486 -0.29352,19.08308 h 0.70693 l -0.11162,-19.12442 z" transform="translate(5.8208349,1.0583333)"/><path id="path108" style="display:inline;fill:#05f;fill-opacity:1;stroke:#002b80;stroke-width:.25;stroke-linecap:round;stroke-linejoin:round;stroke-dasharray:none;stroke-opacity:1" d="m 177.51686,130.67058 0.003,0.0455 -0.004,-0.045 v 20.25303 h 0.005 c 0.001,0.0308 2.3e-4,0.0612 0.006,0.093 5.7e-4,0.003 0.002,0.007 0.003,0.0103 0.008,0.0442 0.0205,0.0896 0.0372,0.13591 0.005,0.0125 0.01,0.0251 0.015,0.0377 0.0169,0.0416 0.0375,0.0839 0.0615,0.12712 0.006,0.0112 0.0119,0.0223 0.0186,0.0336 0.0314,0.053 0.0674,0.10722 0.10955,0.16278 10e-4,0.002 0.002,0.003 0.003,0.005 0.0422,0.0553 0.0914,0.11203 0.1447,0.17001 0.0807,0.0877 0.1767,0.17893 0.2837,0.27286 0.0242,0.0212 0.0498,0.043 0.0754,0.0646 0.11728,0.0989 0.24399,0.19997 0.39119,0.30593 l 5.1e-4,5.1e-4 c 0.003,0.002 1.58139,1.30582 8.68785,1.25626 7.11291,-0.0496 9.08523,-1.25677 9.08523,-1.25677 l -10.58333,-4.81108 10.58333,-15.39441 c 0,0 -1.85478,1.2761 -9.08523,1.25677 -7.22348,-0.0193 -8.68503,-1.25387 -8.68785,-1.25625 v -10e-4 c -3.9e-4,-2.8e-4 -6.4e-4,-7.5e-4 -0.001,-0.001 -0.8239,-0.59315 -1.16778,-1.07282 -1.15238,-1.46554 z" transform="translate(-1.0875e-6)"/><path id="path109" style="display:inline;fill:#05f;fill-opacity:1;stroke:#002b80;stroke-width:.25;stroke-linecap:round;stroke-linejoin:round;stroke-dasharray:none;stroke-opacity:1" d="m 188.90273,126.846 v 1.3963 c 1.7e-4,-3e-5 3.4e-4,3e-5 5.1e-4,0 0.60449,-0.11097 1.09471,-0.2412 1.40974,-0.40411 0.1281,-0.0662 0.17982,-0.13514 0.18551,-0.20412 h -5.1e-4 c 0.011,-0.1332 -0.17707,-0.26613 -0.4222,-0.38499 -0.0321,-0.0155 -0.0611,-0.0316 -0.0951,-0.0465 -0.0653,-0.0289 -0.13409,-0.0558 -0.20309,-0.0822 -0.0338,-0.0129 -0.0668,-0.0261 -0.10077,-0.0382 -0.18084,-0.0652 -0.35916,-0.12098 -0.4992,-0.16123 -0.14045,-0.0396 -0.27491,-0.0749 -0.27491,-0.0749 z" transform="translate(-1.0875e-6)"/><path id="path112" style="display:inline;fill:#05f;fill-opacity:1;stroke:#002b80;stroke-width:.25;stroke-linecap:round;stroke-linejoin:round;stroke-dasharray:none;stroke-opacity:1" d="m 188.90273,126.846 v 1.3963 c 1.7e-4,-3e-5 3.4e-4,3e-5 5.1e-4,0 0.60449,-0.11097 1.09471,-0.2412 1.40974,-0.40411 0.1281,-0.0662 0.17982,-0.13514 0.18551,-0.20412 h -5.1e-4 c 0.011,-0.1332 -0.17707,-0.26613 -0.4222,-0.38499 -0.0321,-0.0155 -0.0611,-0.0316 -0.0951,-0.0465 -0.0653,-0.0289 -0.13409,-0.0558 -0.20309,-0.0822 -0.0338,-0.0129 -0.0668,-0.0261 -0.10077,-0.0382 -0.18084,-0.0652 -0.35916,-0.12098 -0.4992,-0.16123 -0.14045,-0.0396 -0.27491,-0.0749 -0.27491,-0.0749 z" transform="translate(-1.0875e-6)"/><path id="rect112" style="fill:#05f;fill-opacity:1;stroke:none;stroke-width:.258908;stroke-linecap:round;stroke-linejoin:round;stroke-dasharray:none;stroke-opacity:1" d="m 182.95528,125.86984 v 1.21026 l 0.69692,-0.14206 0.005,-0.85188 z" transform="translate(5.8208349,1.0583333)"/></g></g><g id="g39" transform="matrix(1.2973295,0,0,1.2973295,-141.38089,-32.478742)" style="display:inline"><path id="path30" style="font-style:normal;font-variant:normal;font-weight:400;font-stretch:normal;font-size:25.4px;line-height:.9;font-family:'Franklin Gothic';-inkscape-font-specification:'Franklin Gothic';letter-spacing:-.642937px;display:inline;opacity:1;fill:#000;fill-opacity:1;stroke:#000;stroke-width:2;stroke-linecap:round;stroke-linejoin:round;stroke-dasharray:none;paint-order:normal" d="m 83.546801,123.37376 c -0.347913,-0.0284 -0.610722,-0.15357 -0.944377,-0.13931 -0.291545,-0.0419 -0.766812,0.13851 -1.11163,0.20982 -0.368128,0.14049 -0.670036,0.0812 -0.945188,0.16171 -0.306666,0.0897 -0.530858,0.23446 -0.83171,0.38124 -0.234206,0.11427 -0.399735,0.23743 -0.617213,0.37991 -0.168556,0.1446 -0.452587,0.3224 -0.669428,0.50374 -0.200226,0.17417 -0.389989,0.31772 -0.576796,0.51041 -0.187428,0.1683 -0.282612,0.49701 -0.458219,0.72958 -0.172325,0.22822 -0.40142,0.39313 -0.552648,0.64057 -0.153509,0.25184 -0.317824,0.5676 -0.450652,0.84316 -0.147015,0.31378 -0.259235,0.53182 -0.36395,0.81053 -0.12995,0.29942 -0.452249,0.63617 -0.537436,0.95784 -0.326498,0.34723 -0.11289,0.57215 -0.113397,0.91044 -5.13e-4,0.3423 -0.09293,0.7219 -0.132696,1.10168 -0.03944,0.37673 -0.130021,0.76404 -0.132553,1.12339 -0.073,0.37493 -0.04221,0.70368 -0.0055,1.03942 -0.02106,0.34656 -0.103407,0.68738 -0.02383,1.01027 -0.122426,0.34004 0.117795,0.66776 0.278291,0.97368 0.145405,0.27717 0.222323,0.69026 0.325309,0.95028 0.109627,0.2738 0.303271,0.45222 0.445606,0.6906 0.211552,0.16719 0.394638,0.49004 0.561294,0.70952 0.242188,0.21203 0.356434,0.38608 0.509289,0.56202 0.225718,0.19624 0.322129,0.38186 0.491377,0.55143 0.17751,0.17785 0.347311,0.29561 0.57066,0.45238 0.264476,0.18564 0.591719,0.34002 0.873568,0.48983 0.325493,0.1305 0.513582,0.24813 0.792464,0.35889 0.268828,0.0945 0.599388,0.18529 0.923631,0.26683 0.309575,0.0779 0.670976,0.10604 0.992505,0.13259 0.321013,0.0265 0.764167,0.0376 1.060212,0.0337 0.404594,-0.006 0.373481,-0.0213 0.594265,-0.057 0.265089,-0.0429 0.525546,-0.22119 0.806123,-0.32388 0.257167,-0.0941 0.733236,-0.20006 1.00188,-0.32592 0.450482,-0.11323 0.453598,-0.24038 0.644655,-0.39173 0.233677,-0.18512 0.431816,-0.36528 0.695001,-0.62702 0.113173,0.21423 0.08581,0.54732 0.200958,0.75549 -0.02689,0.33127 0.262989,0.35546 0.413905,0.53244 0.151308,0.17744 0.528882,0.43145 0.643687,0.6456 0.226648,0.0146 0.362797,-0.11422 0.533649,-0.11183 0.170852,0.002 0.166972,0.14051 0.393699,0.15421 l 0.172438,-0.91955 -0.0027,-0.92582 0.190774,-0.89094 0.235382,-0.94535 0.02363,-0.9267 0.02038,-0.93952 0.06021,-0.95604 0.09069,-0.88634 -0.06007,-0.93235 c -0.319616,-0.015 -0.748006,-0.0596 -1.066817,-0.0766 -0.393327,-0.0438 -0.497709,-0.11649 -0.777173,-0.13209 -0.27149,-0.10494 -0.782627,-0.0315 -1.122342,-0.0454 -0.391391,-0.009 -0.572484,0.01 -0.852121,-0.001 -0.321752,0.0198 -0.825132,0.0286 -1.14054,0.01 -0.471826,0.0402 -0.345291,-0.17307 -0.586764,-0.20674 -0.29339,-0.0409 -0.538231,0.0317 -0.89658,0.003 l -0.124366,0.93323 0.04769,0.87895 -0.429255,0.94672 c 0.295978,0.008 0.586793,0.021 0.871699,0.0363 0.28613,0.0161 0.490795,0.0697 0.768457,0.0889 0.278175,0.0192 0.542778,-0.001 0.819151,0.019 -0.04282,0.19792 -0.245205,0.32894 -0.280863,0.5124 -0.03566,0.18345 0.103802,0.45295 0.03269,0.61972 -0.06894,0.16484 -0.163969,0.3237 -0.300956,0.46476 -0.136987,0.14107 -0.326748,0.27214 -0.527825,0.40599 -0.198858,0.13191 -0.758822,0.24496 -1.033529,0.29475 -0.274707,0.0498 -0.37131,0.0569 -0.726796,0.0279 -0.329246,-0.0269 -0.50038,-0.11801 -0.732174,-0.23837 -0.231793,-0.12037 -0.541025,-0.2545 -0.728493,-0.45747 -0.187542,-0.20306 -0.302188,-0.46889 -0.421227,-0.77519 -0.11904,-0.30631 -0.247759,-0.62693 -0.306807,-1.02866 -0.02954,-0.20095 0.01045,-0.37259 -0.004,-0.60442 0.04681,-0.19672 -0.03427,-0.54802 -0.04312,-0.82886 -0.01276,-0.29671 -0.0035,-0.52825 0.0025,-0.79689 0.0064,-0.28797 0.04922,-0.56123 0.07801,-0.88021 0.04611,-0.51087 -0.0235,-1.00325 0.05293,-1.43788 -0.05305,-0.46183 0.274514,-0.98971 0.390189,-1.35211 0.195647,-0.44667 0.431261,-0.56722 0.547454,-0.80671 0.350429,-0.24643 0.105924,-0.43619 0.233414,-0.62262 0.03626,-0.22262 0.352774,-0.45785 0.582768,-0.60641 0.17831,-0.13354 0.370522,-0.22528 0.619504,-0.2752 0.233619,-0.0468 0.538484,-0.001 0.800424,0.0203 0.269148,0.0219 0.557233,0.0381 0.778783,0.13039 0.26374,0.0516 0.371737,0.20849 0.541206,0.37628 0.132802,0.16136 0.325208,0.38794 0.455465,0.64683 0.115831,0.2378 0.0637,0.52509 0.142573,0.83998 0.07975,0.31836 0.294694,0.7128 0.32329,1.10012 0.279951,-0.0254 0.255616,-0.0553 0.535473,-0.0841 0.0519,-0.0391 0.887134,-0.13576 1.285036,-0.1753 0.381831,-0.0839 0.365131,0.0291 0.590374,0.0119 0.201989,0.0487 0.752225,-0.19782 1.070148,-0.23804 0.289586,-0.0366 0.316321,0.0366 0.5779,0.009 -0.03625,-0.28965 -0.06864,-0.5738 -0.128535,-0.8526 -0.0455,-0.28017 -0.14205,-0.47452 -0.231589,-0.74449 -0.102074,-0.20381 -0.106359,-0.58736 -0.235522,-0.87429 -0.02161,-0.2808 -0.240218,-0.52295 -0.419351,-0.77723 -0.174748,-0.24804 -0.457429,-0.50617 -0.644478,-0.73996 -0.162307,-0.20363 -0.312083,-0.48028 -0.499851,-0.65338 -0.156889,-0.25608 -0.374233,-0.34154 -0.582504,-0.47561 -0.215548,-0.16421 -0.446917,-0.20995 -0.694623,-0.31463 -0.247088,-0.0543 -0.530416,-0.11052 -0.812854,-0.19295 -0.285575,0.011 -0.543986,-0.14734 -0.843113,-0.22479 -0.296871,-0.0769 -0.640853,-0.10265 -0.968466,-0.12935 z m 8.653742,0.81983 -0.07075,0.97555 -0.06152,1.00118 0.0033,1.0512 -0.08563,0.99823 -0.0543,1.01746 -0.08457,1.04977 -0.05807,0.86903 -0.06289,1.00785 -0.0072,0.96034 -0.100193,0.94694 -0.05438,1.07052 -0.05022,0.97663 -0.120775,0.94114 -0.01827,1.01909 -0.04464,1.01925 -0.04592,0.99085 0.266996,1.00251 c 0.293825,0.0171 0.608516,0.0544 0.905988,0.0705 0.309989,0.0365 0.619477,0.0137 0.913481,0.0284 0.325538,-0.003 0.590107,0.0672 0.881931,0.0808 0.310256,0.0528 0.606709,0.0421 0.90928,0.0545 0.309995,0.0275 0.613651,0.0711 0.92094,0.0818 0.310451,0.0578 0.737615,0.0197 1.047979,0.0276 0.393354,0.007 0.43864,0.0681 0.710518,0.0734 0.240233,0.0618 0.83534,0.0257 1.187865,0.0272 0.409621,0.0166 0.448394,-0.0174 0.716634,-0.019 0.249865,-0.02 0.656733,-0.0104 1.008373,-0.0124 0.28782,-0.008 0.64517,-0.006 0.97918,-0.005 0.30846,-0.003 0.61245,0.0125 0.93539,0.0157 0.32103,0.003 0.75002,-0.0254 1.06435,-0.0208 l -0.0143,-0.90481 -0.22956,-0.86845 0.13167,-0.87415 0.0243,-0.8834 c -0.31454,-0.005 -0.73285,-0.0725 -1.04916,-0.0781 -0.38627,-0.0678 -0.48729,-0.0137 -0.76902,-0.0178 -0.26477,-0.009 -0.71844,0.0573 -1.0645,0.0532 -0.3403,0.0629 -0.56023,-0.0656 -0.870168,-0.0735 -0.276833,-0.0643 -0.678601,0.0122 -1.021692,0.006 -0.320967,0.0217 -0.505412,-0.0329 -0.827387,-0.0431 -0.206515,-0.0291 -0.959944,0.081 -1.337368,0.0725 -0.334376,-0.008 -0.43924,-0.10234 -0.738996,-0.11414 l 0.03499,-0.81833 0.01595,-0.79454 -0.03141,-0.84385 -0.01356,-0.80655 c 0.336425,0.0117 0.673805,0.0282 1.000728,0.0391 0.331317,0.0161 0.660163,-0.0768 0.977357,-0.0671 0.332395,-0.0882 0.710177,0.0306 1.020429,0.0537 0.378585,0.0233 0.626298,0.0348 0.903629,0.0565 0.302706,0.0237 0.559776,0.0682 0.884916,0.0762 l 0.2327,-0.85436 -0.049,-0.9447 -0.0372,-0.93464 -0.30461,-0.90561 c -0.25839,0.007 -0.47317,-0.0117 -0.748873,-0.0105 -0.236453,-0.022 -0.556643,0.0677 -0.86648,0.0656 -0.2624,0.0648 -0.593718,0.0121 -0.907396,-0.003 -0.289155,0.0105 -0.706803,-0.0222 -1.01472,-0.0465 -0.309229,-0.0244 -0.61553,-8.7e-4 -0.913592,-0.0126 l 0.05469,-0.77892 0.05867,-0.78099 -0.08547,-0.72045 0.221671,-0.80081 c 0.293477,0.0109 0.522153,0.11379 0.816694,0.12398 0.248935,0.10329 0.630781,0.0462 0.948703,0.0527 0.295129,0.033 0.53199,0.0327 0.82923,0.0347 0.254326,0.0252 0.616803,0.0295 0.936174,0.0272 0.285926,0.026 0.729456,-0.008 1.033216,-0.0144 0.39001,-0.006 0.51185,-0.008 0.76033,-0.0138 0.29746,-0.003 0.76206,-0.0966 1.06056,-0.10087 0.29363,-0.004 0.27032,0.0495 0.57502,0.0543 l 0.22434,-0.84407 -0.0773,-0.91787 -0.02,-0.90298 0.0694,-0.85874 c -0.31608,-0.005 -0.77762,-0.12753 -1.09392,-0.13373 -0.4134,-0.12189 -0.52535,-0.0121 -0.79195,-0.0168 -0.31083,-0.008 -0.66337,-0.005 -0.98266,-0.0101 -0.33276,9.3e-4 -0.64705,-0.009 -0.95564,-0.0137 -0.336385,-0.004 -0.599683,-0.0241 -0.906591,-0.0294 -0.3063,-0.0196 -0.710371,0.002 -1.032706,-0.004 -0.362081,0.007 -0.501822,-0.0127 -0.7962,-0.0192 -0.254107,-0.009 -0.700776,0.0238 -1.050755,0.0144 -0.322127,0.0314 -0.633692,-0.011 -0.949852,-0.025 -0.320102,-0.005 -0.442825,-0.0677 -0.759295,-0.0863 -0.155021,-0.0568 -0.7347,-0.026 -1.130495,-0.0373 -0.332225,-0.01 -0.615524,-0.004 -0.906383,-0.0199 z m 13.110177,0.46106 -0.24846,0.97371 0.15776,0.96991 0.11583,0.97023 0.0268,0.98477 0.18798,0.93675 -0.004,1.09879 -0.10666,1.01846 -0.12627,0.99488 -0.20879,0.83814 0.0808,1.1208 0.0261,0.98208 -0.0299,0.99439 -0.0446,0.96728 -0.0359,1.0414 -0.0274,0.99032 -0.0224,0.98657 -0.0173,1.01319 c 0.29969,0.002 0.48759,0.0157 0.78746,0.0175 0.21413,0.0132 0.71193,0.0317 1.05684,0.0311 0.33659,0.0291 0.56407,0.006 0.84415,-0.003 0.30303,-0.009 0.58041,0.0232 0.87874,0.0228 l -0.20655,-1.036 0.0166,-0.90427 0.0442,-0.95002 0.19902,-0.99656 -0.005,-0.94022 -0.0528,-0.96256 0.12406,-1.00686 -0.14483,-0.91347 0.18164,-0.9765 -0.104,-0.98209 c 0.1739,0.26768 0.25974,0.53499 0.43499,0.80215 0.0953,0.28045 0.32372,0.56415 0.51067,0.84414 0.13578,0.27541 0.30236,0.54284 0.48732,0.81435 0.12407,0.27321 0.35105,0.61209 0.54218,0.88581 0.15161,0.31677 0.36649,0.63112 0.54665,0.88195 0.17869,0.35955 0.18564,0.57663 0.35506,0.80474 0.0444,0.37548 0.37621,0.59081 0.57974,0.84311 0.17696,0.31488 0.37664,0.49478 0.578,0.72759 0.19264,0.26015 0.43934,0.44745 0.65403,0.68594 0.23022,0.20434 0.35201,0.51669 0.56398,0.76462 0.13172,0.27976 0.44427,0.35466 0.66749,0.6029 0.21525,0.23936 0.42231,0.62546 0.60788,0.88469 0.30222,-0.007 0.68531,0.0841 0.98737,0.0757 0.3644,0.0907 0.49182,-0.0143 0.76429,-0.0365 0.24558,-0.0137 0.56023,-0.044 0.89006,-0.0736 0.3018,-0.0271 0.6961,-0.0651 0.99378,-0.0754 l -0.0539,-1.02902 -0.0366,-0.90497 -0.11341,-1.10264 -0.0823,-0.88047 -0.10099,-1.08165 0.0348,-0.97203 -0.17733,-0.96778 -0.0595,-1.02164 -0.0411,-0.88958 -0.14359,-1.17127 0.13711,-0.94683 0.0233,-0.98745 0.0133,-1.01563 0.1681,-1.02053 -0.0278,-0.89607 0.007,-1.05119 -0.12218,-0.89735 c -0.28991,-0.0128 -0.62067,0.0435 -0.90858,0.0397 -0.31967,0.0603 -0.42679,-0.0683 -0.69725,-0.0751 -0.18193,-0.0656 -0.69124,-0.007 -1.02853,0.005 -0.29324,0.0103 -0.69174,0.1515 -0.96193,0.15755 l -0.0287,0.98971 0.16035,0.92072 -0.0211,1.04197 0.0185,0.81592 0.0995,0.98166 0.2836,0.90965 -0.24682,1.02682 0.0358,0.86243 0.0377,0.94788 c -0.18029,-0.2577 -0.35662,-0.53801 -0.53613,-0.79591 -0.17288,-0.27603 -0.34919,-0.5077 -0.52494,-0.76102 -0.17588,-0.25916 -0.37721,-0.4988 -0.55578,-0.75706 -0.19817,-0.24122 -0.44996,-0.48628 -0.62785,-0.74585 -0.26517,-0.22007 -0.24854,-0.5312 -0.4172,-0.7849 -0.084,-0.29486 -0.29906,-0.59715 -0.47904,-0.86605 -0.11214,-0.31539 -0.23639,-0.50978 -0.41204,-0.76216 -0.0802,-0.27201 -0.35823,-0.54225 -0.56092,-0.81228 -0.15957,-0.25218 -0.35057,-0.40688 -0.54683,-0.65954 -0.16547,-0.16073 -0.47223,-0.56456 -0.67468,-0.85043 -0.18675,-0.2637 -0.32388,-0.5285 -0.48413,-0.77248 -0.33115,9.9e-4 -0.77442,0.002 -1.10388,0.004 -0.41324,6.5e-4 -0.59924,0.0481 -0.88421,0.0496 -0.33989,0.0462 -0.48744,-0.009 -0.81405,-0.0199 -0.3211,-0.0111 -0.70845,0.0363 -1.0516,0.0327 z m 15.42265,-0.45072 -0.22506,1.07992 -0.0786,1.08142 0.0613,1.09778 0.0441,0.95599 0.021,0.91204 0.028,1.05374 0.15754,0.91992 0.1282,1.0456 0.087,0.94897 0.0122,1.01917 0.0451,0.98322 0.14156,0.98788 0.15599,1.00131 0.20608,1.04234 -0.0584,0.97358 0.16274,0.97747 -0.30191,0.95533 c 0.31131,-0.007 0.5953,-0.0629 0.90514,-0.0732 0.29039,-0.0574 0.67775,-0.0421 0.99602,-0.0508 0.34034,-0.0308 0.50848,0.0174 0.79989,0.0118 0.23965,0.0249 0.68605,-0.0209 1.02785,-0.0386 0.31262,-0.0163 0.52258,-0.10004 0.81917,-0.11737 l -0.13801,-0.99602 -0.0304,-0.89658 0.009,-1.11375 0.0179,-0.95229 -0.16398,-1.00598 0.0973,-0.94558 -0.19114,-1.10066 -0.0499,-0.85998 -0.0264,-1.04353 -0.0571,-1.10055 -0.0438,-0.90155 -0.0793,-0.99251 -0.0498,-0.94151 -0.21719,-1.03577 -0.0399,-0.99995 0.25416,-0.92459 -0.46396,-1.01713 c -0.2366,0.0141 -0.30429,0.0266 -0.56003,0.0408 -0.12073,0.0149 -0.63687,0.12157 -0.97902,0.13832 -0.27628,0.10105 -0.55104,-0.0175 -0.82882,-0.0172 -0.29121,-0.034 -0.68219,0.0621 -0.96237,0.0698 -0.29378,0.008 -0.34847,-0.18337 -0.63177,-0.17122 z m 6.61462,-0.24264 0.24515,1.03386 0.0661,1.06329 0.008,0.89071 0.29485,0.98356 0.0421,0.97319 0.30264,1.02286 -0.0338,1.01277 0.0733,0.9888 0.0538,1.01974 -0.0272,0.94637 -0.006,1.02123 0.1286,1.03334 0.0383,0.93778 0.0289,1.01321 0.0178,0.9779 -0.0407,1.03913 0.15868,0.97986 c 0.3037,-0.0231 0.63092,-0.06 0.93678,-0.0839 0.32067,-0.0367 0.33231,-0.0124 0.63219,-0.0363 0.12781,0.003 0.78527,0.008 1.18696,-0.0251 0.30664,0.046 0.82309,-0.0463 1.13949,-0.0746 0.44413,-0.0154 0.42259,0.0322 0.66943,0.009 0.26706,0.0449 0.48825,-0.0957 0.8286,-0.13271 0.17975,-0.0686 0.70233,-0.0621 1.08265,-0.10494 0.28212,-0.0168 0.75105,-0.0828 1.0843,-0.12187 0.37936,-0.0413 0.49016,-0.0389 0.77334,-0.0729 0.26083,-0.0125 0.71841,-0.1502 1.06365,-0.19387 0.33949,-0.1051 0.55544,-0.0756 0.85629,-0.10528 0.27564,-0.0368 0.73416,-0.1027 1.07157,-0.13134 0.3256,-0.0277 0.46968,-0.007 0.77611,-0.0407 l 0.0186,-0.80424 -0.0168,-0.97007 -0.084,-0.97282 -0.18081,-0.79335 c -0.32244,0.0357 -0.63585,0.0767 -0.958,0.11123 -0.31586,0.0408 -0.58816,0.19186 -0.91297,0.22527 -0.27619,0.15772 -0.62589,0.0427 -0.96657,0.0699 -0.28607,0.005 -0.63234,0.0659 -0.97481,0.0894 -0.28797,0.0372 -0.73087,-0.12322 -1.07085,-0.10305 -0.37053,-0.14861 -0.60967,0.0526 -0.91341,0.0941 -0.31473,0.0434 -0.64625,0.12949 -0.96648,0.1768 -0.32156,0.0475 -0.75626,0.0631 -1.07406,0.0894 l -0.10618,-0.79787 0.0658,-0.79214 0.13434,-0.83352 -0.24832,-0.81177 c 0.30934,-0.0286 0.64688,-0.06 0.9561,-0.0886 0.32946,-0.0307 0.53905,0.0281 0.8376,4.1e-4 0.26528,0.0533 0.67877,-0.11406 1.01445,-0.15829 0.32102,-0.0827 0.54648,-0.0697 0.845,-0.0994 0.30999,-0.0308 0.77785,-0.11218 1.0861,-0.14291 l -0.13789,-0.76851 -0.12164,-0.96967 -0.0303,-0.87337 -0.18026,-0.9167 c -0.30206,0.0392 -0.601,0.19131 -0.90417,0.22634 -0.29828,0.15006 -0.46288,0.0867 -0.76613,0.10738 -0.19606,0.049 -0.83344,0.0625 -1.19675,0.0738 -0.41572,0.0348 -0.51244,-0.004 -0.75978,5e-4 -0.30361,0.005 -0.74347,-0.0406 -1.06208,-0.0141 l -0.28499,-0.73581 0.13951,-0.75029 -0.0189,-0.74619 0.0429,-0.73163 c 0.29622,-0.0225 0.49406,-0.0464 0.79027,-0.0703 0.22821,-0.027 0.6298,-0.10681 0.96048,-0.13491 0.2758,-0.0787 0.60616,-0.0502 0.91119,-0.0747 0.29609,-0.0235 0.75976,0.017 1.05663,-0.006 0.4167,0.0444 0.48869,-0.0489 0.72599,-0.0733 0.29961,-0.0378 0.51632,-0.0884 0.80897,-0.12286 0.22764,-0.0602 0.46045,0.009 0.79039,-0.0222 0.29789,-0.0278 0.98559,-0.12454 1.2757,-0.15634 l -0.14997,-0.88483 -0.15599,-0.89864 -0.16331,-0.91492 -0.32693,-0.8035 c -0.2983,0.0315 -0.67339,0.1232 -0.97443,0.15405 -0.35032,0.0887 -0.55882,0.068 -0.83492,0.0949 -0.30952,0.0417 -0.58853,0.0995 -0.89093,0.12709 -0.29563,0.0701 -0.51345,0.0533 -0.82514,0.0792 -0.23472,0.0264 -0.8676,-0.0629 -1.21528,-0.0369 -0.43537,-0.0993 -0.44365,0.11665 -0.69679,0.13765 -0.26563,0.10485 -0.73073,0.0559 -1.06312,0.0816 -0.36028,0.0246 -0.56729,0.007 -0.85695,0.0286 -0.30454,-0.0137 -0.58459,0.0281 -0.90547,0.0544 -0.2717,0.006 -0.68057,0.0687 -1.01939,0.0995 -0.32765,0.0397 -0.61017,0.0157 -0.91872,0.0397 -0.3156,0.0245 -0.66199,0.0689 -0.97855,0.0902 z" transform="translate(0.90438491,-31.653469)"/><path id="text19" style="font-style:normal;font-variant:normal;font-weight:400;font-stretch:normal;font-size:25.4px;line-height:.9;font-family:'Franklin Gothic';-inkscape-font-specification:'Franklin Gothic';letter-spacing:-.642937px;display:inline;opacity:1;fill:#000;fill-opacity:1;stroke:#000;stroke-width:2;stroke-linecap:round;stroke-linejoin:round;stroke-dasharray:none;paint-order:normal;filter:url(#filter39)" d="m 83.546801,123.37376 c -0.347913,-0.0284 -0.610722,-0.15357 -0.944377,-0.13931 -0.291545,-0.0419 -0.766812,0.13851 -1.11163,0.20982 -0.368128,0.14049 -0.670036,0.0812 -0.945188,0.16171 -0.306666,0.0897 -0.530858,0.23446 -0.83171,0.38124 -0.234206,0.11427 -0.399735,0.23743 -0.617213,0.37991 -0.168556,0.1446 -0.452587,0.3224 -0.669428,0.50374 -0.200226,0.17417 -0.389989,0.31772 -0.576796,0.51041 -0.187428,0.1683 -0.282612,0.49701 -0.458219,0.72958 -0.172325,0.22822 -0.40142,0.39313 -0.552648,0.64057 -0.153509,0.25184 -0.317824,0.5676 -0.450652,0.84316 -0.147015,0.31378 -0.259235,0.53182 -0.36395,0.81053 -0.12995,0.29942 -0.452249,0.63617 -0.537436,0.95784 -0.326498,0.34723 -0.11289,0.57215 -0.113397,0.91044 -5.13e-4,0.3423 -0.09293,0.7219 -0.132696,1.10168 -0.03944,0.37673 -0.130021,0.76404 -0.132553,1.12339 -0.073,0.37493 -0.04221,0.70368 -0.0055,1.03942 -0.02106,0.34656 -0.103407,0.68738 -0.02383,1.01027 -0.122426,0.34004 0.117795,0.66776 0.278291,0.97368 0.145405,0.27717 0.222323,0.69026 0.325309,0.95028 0.109627,0.2738 0.303271,0.45222 0.445606,0.6906 0.211552,0.16719 0.394638,0.49004 0.561294,0.70952 0.242188,0.21203 0.356434,0.38608 0.509289,0.56202 0.225718,0.19624 0.322129,0.38186 0.491377,0.55143 0.17751,0.17785 0.347311,0.29561 0.57066,0.45238 0.264476,0.18564 0.591719,0.34002 0.873568,0.48983 0.325493,0.1305 0.513582,0.24813 0.792464,0.35889 0.268828,0.0945 0.599388,0.18529 0.923631,0.26683 0.309575,0.0779 0.670976,0.10604 0.992505,0.13259 0.321013,0.0265 0.764167,0.0376 1.060212,0.0337 0.404594,-0.006 0.373481,-0.0213 0.594265,-0.057 0.265089,-0.0429 0.525546,-0.22119 0.806123,-0.32388 0.257167,-0.0941 0.733236,-0.20006 1.00188,-0.32592 0.450482,-0.11323 0.453598,-0.24038 0.644655,-0.39173 0.233677,-0.18512 0.431816,-0.36528 0.695001,-0.62702 0.113173,0.21423 0.08581,0.54732 0.200958,0.75549 -0.02689,0.33127 0.262989,0.35546 0.413905,0.53244 0.151308,0.17744 0.528882,0.43145 0.643687,0.6456 0.226648,0.0146 0.362797,-0.11422 0.533649,-0.11183 0.170852,0.002 0.166972,0.14051 0.393699,0.15421 l 0.172438,-0.91955 -0.0027,-0.92582 0.190774,-0.89094 0.235382,-0.94535 0.02363,-0.9267 0.02038,-0.93952 0.06021,-0.95604 0.09069,-0.88634 -0.06007,-0.93235 c -0.319616,-0.015 -0.748006,-0.0596 -1.066817,-0.0766 -0.393327,-0.0438 -0.497709,-0.11649 -0.777173,-0.13209 -0.27149,-0.10494 -0.782627,-0.0315 -1.122342,-0.0454 -0.391391,-0.009 -0.572484,0.01 -0.852121,-0.001 -0.321752,0.0198 -0.825132,0.0286 -1.14054,0.01 -0.471826,0.0402 -0.345291,-0.17307 -0.586764,-0.20674 -0.29339,-0.0409 -0.538231,0.0317 -0.89658,0.003 l -0.124366,0.93323 0.04769,0.87895 -0.429255,0.94672 c 0.295978,0.008 0.586793,0.021 0.871699,0.0363 0.28613,0.0161 0.490795,0.0697 0.768457,0.0889 0.278175,0.0192 0.542778,-0.001 0.819151,0.019 -0.04282,0.19792 -0.245205,0.32894 -0.280863,0.5124 -0.03566,0.18345 0.103802,0.45295 0.03269,0.61972 -0.06894,0.16484 -0.163969,0.3237 -0.300956,0.46476 -0.136987,0.14107 -0.326748,0.27214 -0.527825,0.40599 -0.198858,0.13191 -0.758822,0.24496 -1.033529,0.29475 -0.274707,0.0498 -0.37131,0.0569 -0.726796,0.0279 -0.329246,-0.0269 -0.50038,-0.11801 -0.732174,-0.23837 -0.231793,-0.12037 -0.541025,-0.2545 -0.728493,-0.45747 -0.187542,-0.20306 -0.302188,-0.46889 -0.421227,-0.77519 -0.11904,-0.30631 -0.247759,-0.62693 -0.306807,-1.02866 -0.02954,-0.20095 0.01045,-0.37259 -0.004,-0.60442 0.04681,-0.19672 -0.03427,-0.54802 -0.04312,-0.82886 -0.01276,-0.29671 -0.0035,-0.52825 0.0025,-0.79689 0.0064,-0.28797 0.04922,-0.56123 0.07801,-0.88021 0.04611,-0.51087 -0.0235,-1.00325 0.05293,-1.43788 -0.05305,-0.46183 0.274514,-0.98971 0.390189,-1.35211 0.195647,-0.44667 0.431261,-0.56722 0.547454,-0.80671 0.350429,-0.24643 0.105924,-0.43619 0.233414,-0.62262 0.03626,-0.22262 0.352774,-0.45785 0.582768,-0.60641 0.17831,-0.13354 0.370522,-0.22528 0.619504,-0.2752 0.233619,-0.0468 0.538484,-0.001 0.800424,0.0203 0.269148,0.0219 0.557233,0.0381 0.778783,0.13039 0.26374,0.0516 0.371737,0.20849 0.541206,0.37628 0.132802,0.16136 0.325208,0.38794 0.455465,0.64683 0.115831,0.2378 0.0637,0.52509 0.142573,0.83998 0.07975,0.31836 0.294694,0.7128 0.32329,1.10012 0.279951,-0.0254 0.255616,-0.0553 0.535473,-0.0841 0.0519,-0.0391 0.887134,-0.13576 1.285036,-0.1753 0.381831,-0.0839 0.365131,0.0291 0.590374,0.0119 0.201989,0.0487 0.752225,-0.19782 1.070148,-0.23804 0.289586,-0.0366 0.316321,0.0366 0.5779,0.009 -0.03625,-0.28965 -0.06864,-0.5738 -0.128535,-0.8526 -0.0455,-0.28017 -0.14205,-0.47452 -0.231589,-0.74449 -0.102074,-0.20381 -0.106359,-0.58736 -0.235522,-0.87429 -0.02161,-0.2808 -0.240218,-0.52295 -0.419351,-0.77723 -0.174748,-0.24804 -0.457429,-0.50617 -0.644478,-0.73996 -0.162307,-0.20363 -0.312083,-0.48028 -0.499851,-0.65338 -0.156889,-0.25608 -0.374233,-0.34154 -0.582504,-0.47561 -0.215548,-0.16421 -0.446917,-0.20995 -0.694623,-0.31463 -0.247088,-0.0543 -0.530416,-0.11052 -0.812854,-0.19295 -0.285575,0.011 -0.543986,-0.14734 -0.843113,-0.22479 -0.296871,-0.0769 -0.640853,-0.10265 -0.968466,-0.12935 z m 8.653742,0.81983 -0.07075,0.97555 -0.06152,1.00118 0.0033,1.0512 -0.08563,0.99823 -0.0543,1.01746 -0.08457,1.04977 -0.05807,0.86903 -0.06289,1.00785 -0.0072,0.96034 -0.100193,0.94694 -0.05438,1.07052 -0.05022,0.97663 -0.120775,0.94114 -0.01827,1.01909 -0.04464,1.01925 -0.04592,0.99085 0.266996,1.00251 c 0.293825,0.0171 0.608516,0.0544 0.905988,0.0705 0.309989,0.0365 0.619477,0.0137 0.913481,0.0284 0.325538,-0.003 0.590107,0.0672 0.881931,0.0808 0.310256,0.0528 0.606709,0.0421 0.90928,0.0545 0.309995,0.0275 0.613651,0.0711 0.92094,0.0818 0.310451,0.0578 0.737615,0.0197 1.047979,0.0276 0.393354,0.007 0.43864,0.0681 0.710518,0.0734 0.240233,0.0618 0.83534,0.0257 1.187865,0.0272 0.409621,0.0166 0.448394,-0.0174 0.716634,-0.019 0.249865,-0.02 0.656733,-0.0104 1.008373,-0.0124 0.28782,-0.008 0.64517,-0.006 0.97918,-0.005 0.30846,-0.003 0.61245,0.0125 0.93539,0.0157 0.32103,0.003 0.75002,-0.0254 1.06435,-0.0208 l -0.0143,-0.90481 -0.22956,-0.86845 0.13167,-0.87415 0.0243,-0.8834 c -0.31454,-0.005 -0.73285,-0.0725 -1.04916,-0.0781 -0.38627,-0.0678 -0.48729,-0.0137 -0.76902,-0.0178 -0.26477,-0.009 -0.71844,0.0573 -1.0645,0.0532 -0.3403,0.0629 -0.56023,-0.0656 -0.870168,-0.0735 -0.276833,-0.0643 -0.678601,0.0122 -1.021692,0.006 -0.320967,0.0217 -0.505412,-0.0329 -0.827387,-0.0431 -0.206515,-0.0291 -0.959944,0.081 -1.337368,0.0725 -0.334376,-0.008 -0.43924,-0.10234 -0.738996,-0.11414 l 0.03499,-0.81833 0.01595,-0.79454 -0.03141,-0.84385 -0.01356,-0.80655 c 0.336425,0.0117 0.673805,0.0282 1.000728,0.0391 0.331317,0.0161 0.660163,-0.0768 0.977357,-0.0671 0.332395,-0.0882 0.710177,0.0306 1.020429,0.0537 0.378585,0.0233 0.626298,0.0348 0.903629,0.0565 0.302706,0.0237 0.559776,0.0682 0.884916,0.0762 l 0.2327,-0.85436 -0.049,-0.9447 -0.0372,-0.93464 -0.30461,-0.90561 c -0.25839,0.007 -0.47317,-0.0117 -0.748873,-0.0105 -0.236453,-0.022 -0.556643,0.0677 -0.86648,0.0656 -0.2624,0.0648 -0.593718,0.0121 -0.907396,-0.003 -0.289155,0.0105 -0.706803,-0.0222 -1.01472,-0.0465 -0.309229,-0.0244 -0.61553,-8.7e-4 -0.913592,-0.0126 l 0.05469,-0.77892 0.05867,-0.78099 -0.08547,-0.72045 0.221671,-0.80081 c 0.293477,0.0109 0.522153,0.11379 0.816694,0.12398 0.248935,0.10329 0.630781,0.0462 0.948703,0.0527 0.295129,0.033 0.53199,0.0327 0.82923,0.0347 0.254326,0.0252 0.616803,0.0295 0.936174,0.0272 0.285926,0.026 0.729456,-0.008 1.033216,-0.0144 0.39001,-0.006 0.51185,-0.008 0.76033,-0.0138 0.29746,-0.003 0.76206,-0.0966 1.06056,-0.10087 0.29363,-0.004 0.27032,0.0495 0.57502,0.0543 l 0.22434,-0.84407 -0.0773,-0.91787 -0.02,-0.90298 0.0694,-0.85874 c -0.31608,-0.005 -0.77762,-0.12753 -1.09392,-0.13373 -0.4134,-0.12189 -0.52535,-0.0121 -0.79195,-0.0168 -0.31083,-0.008 -0.66337,-0.005 -0.98266,-0.0101 -0.33276,9.3e-4 -0.64705,-0.009 -0.95564,-0.0137 -0.336385,-0.004 -0.599683,-0.0241 -0.906591,-0.0294 -0.3063,-0.0196 -0.710371,0.002 -1.032706,-0.004 -0.362081,0.007 -0.501822,-0.0127 -0.7962,-0.0192 -0.254107,-0.009 -0.700776,0.0238 -1.050755,0.0144 -0.322127,0.0314 -0.633692,-0.011 -0.949852,-0.025 -0.320102,-0.005 -0.442825,-0.0677 -0.759295,-0.0863 -0.155021,-0.0568 -0.7347,-0.026 -1.130495,-0.0373 -0.332225,-0.01 -0.615524,-0.004 -0.906383,-0.0199 z m 13.110177,0.46106 -0.24846,0.97371 0.15776,0.96991 0.11583,0.97023 0.0268,0.98477 0.18798,0.93675 -0.004,1.09879 -0.10666,1.01846 -0.12627,0.99488 -0.20879,0.83814 0.0808,1.1208 0.0261,0.98208 -0.0299,0.99439 -0.0446,0.96728 -0.0359,1.0414 -0.0274,0.99032 -0.0224,0.98657 -0.0173,1.01319 c 0.29969,0.002 0.48759,0.0157 0.78746,0.0175 0.21413,0.0132 0.71193,0.0317 1.05684,0.0311 0.33659,0.0291 0.56407,0.006 0.84415,-0.003 0.30303,-0.009 0.58041,0.0232 0.87874,0.0228 l -0.20655,-1.036 0.0166,-0.90427 0.0442,-0.95002 0.19902,-0.99656 -0.005,-0.94022 -0.0528,-0.96256 0.12406,-1.00686 -0.14483,-0.91347 0.18164,-0.9765 -0.104,-0.98209 c 0.1739,0.26768 0.25974,0.53499 0.43499,0.80215 0.0953,0.28045 0.32372,0.56415 0.51067,0.84414 0.13578,0.27541 0.30236,0.54284 0.48732,0.81435 0.12407,0.27321 0.35105,0.61209 0.54218,0.88581 0.15161,0.31677 0.36649,0.63112 0.54665,0.88195 0.17869,0.35955 0.18564,0.57663 0.35506,0.80474 0.0444,0.37548 0.37621,0.59081 0.57974,0.84311 0.17696,0.31488 0.37664,0.49478 0.578,0.72759 0.19264,0.26015 0.43934,0.44745 0.65403,0.68594 0.23022,0.20434 0.35201,0.51669 0.56398,0.76462 0.13172,0.27976 0.44427,0.35466 0.66749,0.6029 0.21525,0.23936 0.42231,0.62546 0.60788,0.88469 0.30222,-0.007 0.68531,0.0841 0.98737,0.0757 0.3644,0.0907 0.49182,-0.0143 0.76429,-0.0365 0.24558,-0.0137 0.56023,-0.044 0.89006,-0.0736 0.3018,-0.0271 0.6961,-0.0651 0.99378,-0.0754 l -0.0539,-1.02902 -0.0366,-0.90497 -0.11341,-1.10264 -0.0823,-0.88047 -0.10099,-1.08165 0.0348,-0.97203 -0.17733,-0.96778 -0.0595,-1.02164 -0.0411,-0.88958 -0.14359,-1.17127 0.13711,-0.94683 0.0233,-0.98745 0.0133,-1.01563 0.1681,-1.02053 -0.0278,-0.89607 0.007,-1.05119 -0.12218,-0.89735 c -0.28991,-0.0128 -0.62067,0.0435 -0.90858,0.0397 -0.31967,0.0603 -0.42679,-0.0683 -0.69725,-0.0751 -0.18193,-0.0656 -0.69124,-0.007 -1.02853,0.005 -0.29324,0.0103 -0.69174,0.1515 -0.96193,0.15755 l -0.0287,0.98971 0.16035,0.92072 -0.0211,1.04197 0.0185,0.81592 0.0995,0.98166 0.2836,0.90965 -0.24682,1.02682 0.0358,0.86243 0.0377,0.94788 c -0.18029,-0.2577 -0.35662,-0.53801 -0.53613,-0.79591 -0.17288,-0.27603 -0.34919,-0.5077 -0.52494,-0.76102 -0.17588,-0.25916 -0.37721,-0.4988 -0.55578,-0.75706 -0.19817,-0.24122 -0.44996,-0.48628 -0.62785,-0.74585 -0.26517,-0.22007 -0.24854,-0.5312 -0.4172,-0.7849 -0.084,-0.29486 -0.29906,-0.59715 -0.47904,-0.86605 -0.11214,-0.31539 -0.23639,-0.50978 -0.41204,-0.76216 -0.0802,-0.27201 -0.35823,-0.54225 -0.56092,-0.81228 -0.15957,-0.25218 -0.35057,-0.40688 -0.54683,-0.65954 -0.16547,-0.16073 -0.47223,-0.56456 -0.67468,-0.85043 -0.18675,-0.2637 -0.32388,-0.5285 -0.48413,-0.77248 -0.33115,9.9e-4 -0.77442,0.002 -1.10388,0.004 -0.41324,6.5e-4 -0.59924,0.0481 -0.88421,0.0496 -0.33989,0.0462 -0.48744,-0.009 -0.81405,-0.0199 -0.3211,-0.0111 -0.70845,0.0363 -1.0516,0.0327 z m 15.42265,-0.45072 -0.22506,1.07992 -0.0786,1.08142 0.0613,1.09778 0.0441,0.95599 0.021,0.91204 0.028,1.05374 0.15754,0.91992 0.1282,1.0456 0.087,0.94897 0.0122,1.01917 0.0451,0.98322 0.14156,0.98788 0.15599,1.00131 0.20608,1.04234 -0.0584,0.97358 0.16274,0.97747 -0.30191,0.95533 c 0.31131,-0.007 0.5953,-0.0629 0.90514,-0.0732 0.29039,-0.0574 0.67775,-0.0421 0.99602,-0.0508 0.34034,-0.0308 0.50848,0.0174 0.79989,0.0118 0.23965,0.0249 0.68605,-0.0209 1.02785,-0.0386 0.31262,-0.0163 0.52258,-0.10004 0.81917,-0.11737 l -0.13801,-0.99602 -0.0304,-0.89658 0.009,-1.11375 0.0179,-0.95229 -0.16398,-1.00598 0.0973,-0.94558 -0.19114,-1.10066 -0.0499,-0.85998 -0.0264,-1.04353 -0.0571,-1.10055 -0.0438,-0.90155 -0.0793,-0.99251 -0.0498,-0.94151 -0.21719,-1.03577 -0.0399,-0.99995 0.25416,-0.92459 -0.46396,-1.01713 c -0.2366,0.0141 -0.30429,0.0266 -0.56003,0.0408 -0.12073,0.0149 -0.63687,0.12157 -0.97902,0.13832 -0.27628,0.10105 -0.55104,-0.0175 -0.82882,-0.0172 -0.29121,-0.034 -0.68219,0.0621 -0.96237,0.0698 -0.29378,0.008 -0.34847,-0.18337 -0.63177,-0.17122 z m 6.61462,-0.24264 0.24515,1.03386 0.0661,1.06329 0.008,0.89071 0.29485,0.98356 0.0421,0.97319 0.30264,1.02286 -0.0338,1.01277 0.0733,0.9888 0.0538,1.01974 -0.0272,0.94637 -0.006,1.02123 0.1286,1.03334 0.0383,0.93778 0.0289,1.01321 0.0178,0.9779 -0.0407,1.03913 0.15868,0.97986 c 0.3037,-0.0231 0.63092,-0.06 0.93678,-0.0839 0.32067,-0.0367 0.33231,-0.0124 0.63219,-0.0363 0.12781,0.003 0.78527,0.008 1.18696,-0.0251 0.30664,0.046 0.82309,-0.0463 1.13949,-0.0746 0.44413,-0.0154 0.42259,0.0322 0.66943,0.009 0.26706,0.0449 0.48825,-0.0957 0.8286,-0.13271 0.17975,-0.0686 0.70233,-0.0621 1.08265,-0.10494 0.28212,-0.0168 0.75105,-0.0828 1.0843,-0.12187 0.37936,-0.0413 0.49016,-0.0389 0.77334,-0.0729 0.26083,-0.0125 0.71841,-0.1502 1.06365,-0.19387 0.33949,-0.1051 0.55544,-0.0756 0.85629,-0.10528 0.27564,-0.0368 0.73416,-0.1027 1.07157,-0.13134 0.3256,-0.0277 0.46968,-0.007 0.77611,-0.0407 l 0.0186,-0.80424 -0.0168,-0.97007 -0.084,-0.97282 -0.18081,-0.79335 c -0.32244,0.0357 -0.63585,0.0767 -0.958,0.11123 -0.31586,0.0408 -0.58816,0.19186 -0.91297,0.22527 -0.27619,0.15772 -0.62589,0.0427 -0.96657,0.0699 -0.28607,0.005 -0.63234,0.0659 -0.97481,0.0894 -0.28797,0.0372 -0.73087,-0.12322 -1.07085,-0.10305 -0.37053,-0.14861 -0.60967,0.0526 -0.91341,0.0941 -0.31473,0.0434 -0.64625,0.12949 -0.96648,0.1768 -0.32156,0.0475 -0.75626,0.0631 -1.07406,0.0894 l -0.10618,-0.79787 0.0658,-0.79214 0.13434,-0.83352 -0.24832,-0.81177 c 0.30934,-0.0286 0.64688,-0.06 0.9561,-0.0886 0.32946,-0.0307 0.53905,0.0281 0.8376,4.1e-4 0.26528,0.0533 0.67877,-0.11406 1.01445,-0.15829 0.32102,-0.0827 0.54648,-0.0697 0.845,-0.0994 0.30999,-0.0308 0.77785,-0.11218 1.0861,-0.14291 l -0.13789,-0.76851 -0.12164,-0.96967 -0.0303,-0.87337 -0.18026,-0.9167 c -0.30206,0.0392 -0.601,0.19131 -0.90417,0.22634 -0.29828,0.15006 -0.46288,0.0867 -0.76613,0.10738 -0.19606,0.049 -0.83344,0.0625 -1.19675,0.0738 -0.41572,0.0348 -0.51244,-0.004 -0.75978,5e-4 -0.30361,0.005 -0.74347,-0.0406 -1.06208,-0.0141 l -0.28499,-0.73581 0.13951,-0.75029 -0.0189,-0.74619 0.0429,-0.73163 c 0.29622,-0.0225 0.49406,-0.0464 0.79027,-0.0703 0.22821,-0.027 0.6298,-0.10681 0.96048,-0.13491 0.2758,-0.0787 0.60616,-0.0502 0.91119,-0.0747 0.29609,-0.0235 0.75976,0.017 1.05663,-0.006 0.4167,0.0444 0.48869,-0.0489 0.72599,-0.0733 0.29961,-0.0378 0.51632,-0.0884 0.80897,-0.12286 0.22764,-0.0602 0.46045,0.009 0.79039,-0.0222 0.29789,-0.0278 0.98559,-0.12454 1.2757,-0.15634 l -0.14997,-0.88483 -0.15599,-0.89864 -0.16331,-0.91492 -0.32693,-0.8035 c -0.2983,0.0315 -0.67339,0.1232 -0.97443,0.15405 -0.35032,0.0887 -0.55882,0.068 -0.83492,0.0949 -0.30952,0.0417 -0.58853,0.0995 -0.89093,0.12709 -0.29563,0.0701 -0.51345,0.0533 -0.82514,0.0792 -0.23472,0.0264 -0.8676,-0.0629 -1.21528,-0.0369 -0.43537,-0.0993 -0.44365,0.11665 -0.69679,0.13765 -0.26563,0.10485 -0.73073,0.0559 -1.06312,0.0816 -0.36028,0.0246 -0.56729,0.007 -0.85695,0.0286 -0.30454,-0.0137 -0.58459,0.0281 -0.90547,0.0544 -0.2717,0.006 -0.68057,0.0687 -1.01939,0.0995 -0.32765,0.0397 -0.61017,0.0157 -0.91872,0.0397 -0.3156,0.0245 -0.66199,0.0689 -0.97855,0.0902 z" transform="translate(0.9043849,-30.595136)"/><path id="path34" style="font-style:normal;font-variant:normal;font-weight:400;font-stretch:normal;font-size:25.4px;line-height:.9;font-family:'Franklin Gothic';-inkscape-font-specification:'Franklin Gothic';letter-spacing:-.642937px;display:inline;opacity:1;fill:#000;fill-opacity:1;stroke:#05f;stroke-width:2;stroke-linecap:round;stroke-linejoin:round;stroke-dasharray:none;stroke-opacity:1;paint-order:normal;filter:url(#filter38)" d="m 83.546801,123.37376 c -0.347913,-0.0284 -0.610722,-0.15357 -0.944377,-0.13931 -0.291545,-0.0419 -0.766812,0.13851 -1.11163,0.20982 -0.368128,0.14049 -0.670036,0.0812 -0.945188,0.16171 -0.306666,0.0897 -0.530858,0.23446 -0.83171,0.38124 -0.234206,0.11427 -0.399735,0.23743 -0.617213,0.37991 -0.168556,0.1446 -0.452587,0.3224 -0.669428,0.50374 -0.200226,0.17417 -0.389989,0.31772 -0.576796,0.51041 -0.187428,0.1683 -0.282612,0.49701 -0.458219,0.72958 -0.172325,0.22822 -0.40142,0.39313 -0.552648,0.64057 -0.153509,0.25184 -0.317824,0.5676 -0.450652,0.84316 -0.147015,0.31378 -0.259235,0.53182 -0.36395,0.81053 -0.12995,0.29942 -0.452249,0.63617 -0.537436,0.95784 -0.326498,0.34723 -0.11289,0.57215 -0.113397,0.91044 -5.13e-4,0.3423 -0.09293,0.7219 -0.132696,1.10168 -0.03944,0.37673 -0.130021,0.76404 -0.132553,1.12339 -0.073,0.37493 -0.04221,0.70368 -0.0055,1.03942 -0.02106,0.34656 -0.103407,0.68738 -0.02383,1.01027 -0.122426,0.34004 0.117795,0.66776 0.278291,0.97368 0.145405,0.27717 0.222323,0.69026 0.325309,0.95028 0.109627,0.2738 0.303271,0.45222 0.445606,0.6906 0.211552,0.16719 0.394638,0.49004 0.561294,0.70952 0.242188,0.21203 0.356434,0.38608 0.509289,0.56202 0.225718,0.19624 0.322129,0.38186 0.491377,0.55143 0.17751,0.17785 0.347311,0.29561 0.57066,0.45238 0.264476,0.18564 0.591719,0.34002 0.873568,0.48983 0.325493,0.1305 0.513582,0.24813 0.792464,0.35889 0.268828,0.0945 0.599388,0.18529 0.923631,0.26683 0.309575,0.0779 0.670976,0.10604 0.992505,0.13259 0.321013,0.0265 0.764167,0.0376 1.060212,0.0337 0.404594,-0.006 0.373481,-0.0213 0.594265,-0.057 0.265089,-0.0429 0.525546,-0.22119 0.806123,-0.32388 0.257167,-0.0941 0.733236,-0.20006 1.00188,-0.32592 0.450482,-0.11323 0.453598,-0.24038 0.644655,-0.39173 0.233677,-0.18512 0.431816,-0.36528 0.695001,-0.62702 0.113173,0.21423 0.08581,0.54732 0.200958,0.75549 -0.02689,0.33127 0.262989,0.35546 0.413905,0.53244 0.151308,0.17744 0.528882,0.43145 0.643687,0.6456 0.226648,0.0146 0.362797,-0.11422 0.533649,-0.11183 0.170852,0.002 0.166972,0.14051 0.393699,0.15421 l 0.172438,-0.91955 -0.0027,-0.92582 0.190774,-0.89094 0.235382,-0.94535 0.02363,-0.9267 0.02038,-0.93952 0.06021,-0.95604 0.09069,-0.88634 -0.06007,-0.93235 c -0.319616,-0.015 -0.748006,-0.0596 -1.066817,-0.0766 -0.393327,-0.0438 -0.497709,-0.11649 -0.777173,-0.13209 -0.27149,-0.10494 -0.782627,-0.0315 -1.122342,-0.0454 -0.391391,-0.009 -0.572484,0.01 -0.852121,-0.001 -0.321752,0.0198 -0.825132,0.0286 -1.14054,0.01 -0.471826,0.0402 -0.345291,-0.17307 -0.586764,-0.20674 -0.29339,-0.0409 -0.538231,0.0317 -0.89658,0.003 l -0.124366,0.93323 0.04769,0.87895 -0.429255,0.94672 c 0.295978,0.008 0.586793,0.021 0.871699,0.0363 0.28613,0.0161 0.490795,0.0697 0.768457,0.0889 0.278175,0.0192 0.542778,-0.001 0.819151,0.019 -0.04282,0.19792 -0.245205,0.32894 -0.280863,0.5124 -0.03566,0.18345 0.103802,0.45295 0.03269,0.61972 -0.06894,0.16484 -0.163969,0.3237 -0.300956,0.46476 -0.136987,0.14107 -0.326748,0.27214 -0.527825,0.40599 -0.198858,0.13191 -0.758822,0.24496 -1.033529,0.29475 -0.274707,0.0498 -0.37131,0.0569 -0.726796,0.0279 -0.329246,-0.0269 -0.50038,-0.11801 -0.732174,-0.23837 -0.231793,-0.12037 -0.541025,-0.2545 -0.728493,-0.45747 -0.187542,-0.20306 -0.302188,-0.46889 -0.421227,-0.77519 -0.11904,-0.30631 -0.247759,-0.62693 -0.306807,-1.02866 -0.02954,-0.20095 0.01045,-0.37259 -0.004,-0.60442 0.04681,-0.19672 -0.03427,-0.54802 -0.04312,-0.82886 -0.01276,-0.29671 -0.0035,-0.52825 0.0025,-0.79689 0.0064,-0.28797 0.04922,-0.56123 0.07801,-0.88021 0.04611,-0.51087 -0.0235,-1.00325 0.05293,-1.43788 -0.05305,-0.46183 0.274514,-0.98971 0.390189,-1.35211 0.195647,-0.44667 0.431261,-0.56722 0.547454,-0.80671 0.350429,-0.24643 0.105924,-0.43619 0.233414,-0.62262 0.03626,-0.22262 0.352774,-0.45785 0.582768,-0.60641 0.17831,-0.13354 0.370522,-0.22528 0.619504,-0.2752 0.233619,-0.0468 0.538484,-0.001 0.800424,0.0203 0.269148,0.0219 0.557233,0.0381 0.778783,0.13039 0.26374,0.0516 0.371737,0.20849 0.541206,0.37628 0.132802,0.16136 0.325208,0.38794 0.455465,0.64683 0.115831,0.2378 0.0637,0.52509 0.142573,0.83998 0.07975,0.31836 0.294694,0.7128 0.32329,1.10012 0.279951,-0.0254 0.255616,-0.0553 0.535473,-0.0841 0.0519,-0.0391 0.887134,-0.13576 1.285036,-0.1753 0.381831,-0.0839 0.365131,0.0291 0.590374,0.0119 0.201989,0.0487 0.752225,-0.19782 1.070148,-0.23804 0.289586,-0.0366 0.316321,0.0366 0.5779,0.009 -0.03625,-0.28965 -0.06864,-0.5738 -0.128535,-0.8526 -0.0455,-0.28017 -0.14205,-0.47452 -0.231589,-0.74449 -0.102074,-0.20381 -0.106359,-0.58736 -0.235522,-0.87429 -0.02161,-0.2808 -0.240218,-0.52295 -0.419351,-0.77723 -0.174748,-0.24804 -0.457429,-0.50617 -0.644478,-0.73996 -0.162307,-0.20363 -0.312083,-0.48028 -0.499851,-0.65338 -0.156889,-0.25608 -0.374233,-0.34154 -0.582504,-0.47561 -0.215548,-0.16421 -0.446917,-0.20995 -0.694623,-0.31463 -0.247088,-0.0543 -0.530416,-0.11052 -0.812854,-0.19295 -0.285575,0.011 -0.543986,-0.14734 -0.843113,-0.22479 -0.296871,-0.0769 -0.640853,-0.10265 -0.968466,-0.12935 z m 8.653742,0.81983 -0.07075,0.97555 -0.06152,1.00118 0.0033,1.0512 -0.08563,0.99823 -0.0543,1.01746 -0.08457,1.04977 -0.05807,0.86903 -0.06289,1.00785 -0.0072,0.96034 -0.100193,0.94694 -0.05438,1.07052 -0.05022,0.97663 -0.120775,0.94114 -0.01827,1.01909 -0.04464,1.01925 -0.04592,0.99085 0.266996,1.00251 c 0.293825,0.0171 0.608516,0.0544 0.905988,0.0705 0.309989,0.0365 0.619477,0.0137 0.913481,0.0284 0.325538,-0.003 0.590107,0.0672 0.881931,0.0808 0.310256,0.0528 0.606709,0.0421 0.90928,0.0545 0.309995,0.0275 0.613651,0.0711 0.92094,0.0818 0.310451,0.0578 0.737615,0.0197 1.047979,0.0276 0.393354,0.007 0.43864,0.0681 0.710518,0.0734 0.240233,0.0618 0.83534,0.0257 1.187865,0.0272 0.409621,0.0166 0.448394,-0.0174 0.716634,-0.019 0.249865,-0.02 0.656733,-0.0104 1.008373,-0.0124 0.28782,-0.008 0.64517,-0.006 0.97918,-0.005 0.30846,-0.003 0.61245,0.0125 0.93539,0.0157 0.32103,0.003 0.75002,-0.0254 1.06435,-0.0208 l -0.0143,-0.90481 -0.22956,-0.86845 0.13167,-0.87415 0.0243,-0.8834 c -0.31454,-0.005 -0.73285,-0.0725 -1.04916,-0.0781 -0.38627,-0.0678 -0.48729,-0.0137 -0.76902,-0.0178 -0.26477,-0.009 -0.71844,0.0573 -1.0645,0.0532 -0.3403,0.0629 -0.56023,-0.0656 -0.870168,-0.0735 -0.276833,-0.0643 -0.678601,0.0122 -1.021692,0.006 -0.320967,0.0217 -0.505412,-0.0329 -0.827387,-0.0431 -0.206515,-0.0291 -0.959944,0.081 -1.337368,0.0725 -0.334376,-0.008 -0.43924,-0.10234 -0.738996,-0.11414 l 0.03499,-0.81833 0.01595,-0.79454 -0.03141,-0.84385 -0.01356,-0.80655 c 0.336425,0.0117 0.673805,0.0282 1.000728,0.0391 0.331317,0.0161 0.660163,-0.0768 0.977357,-0.0671 0.332395,-0.0882 0.710177,0.0306 1.020429,0.0537 0.378585,0.0233 0.626298,0.0348 0.903629,0.0565 0.302706,0.0237 0.559776,0.0682 0.884916,0.0762 l 0.2327,-0.85436 -0.049,-0.9447 -0.0372,-0.93464 -0.30461,-0.90561 c -0.25839,0.007 -0.47317,-0.0117 -0.748873,-0.0105 -0.236453,-0.022 -0.556643,0.0677 -0.86648,0.0656 -0.2624,0.0648 -0.593718,0.0121 -0.907396,-0.003 -0.289155,0.0105 -0.706803,-0.0222 -1.01472,-0.0465 -0.309229,-0.0244 -0.61553,-8.7e-4 -0.913592,-0.0126 l 0.05469,-0.77892 0.05867,-0.78099 -0.08547,-0.72045 0.221671,-0.80081 c 0.293477,0.0109 0.522153,0.11379 0.816694,0.12398 0.248935,0.10329 0.630781,0.0462 0.948703,0.0527 0.295129,0.033 0.53199,0.0327 0.82923,0.0347 0.254326,0.0252 0.616803,0.0295 0.936174,0.0272 0.285926,0.026 0.729456,-0.008 1.033216,-0.0144 0.39001,-0.006 0.51185,-0.008 0.76033,-0.0138 0.29746,-0.003 0.76206,-0.0966 1.06056,-0.10087 0.29363,-0.004 0.27032,0.0495 0.57502,0.0543 l 0.22434,-0.84407 -0.0773,-0.91787 -0.02,-0.90298 0.0694,-0.85874 c -0.31608,-0.005 -0.77762,-0.12753 -1.09392,-0.13373 -0.4134,-0.12189 -0.52535,-0.0121 -0.79195,-0.0168 -0.31083,-0.008 -0.66337,-0.005 -0.98266,-0.0101 -0.33276,9.3e-4 -0.64705,-0.009 -0.95564,-0.0137 -0.336385,-0.004 -0.599683,-0.0241 -0.906591,-0.0294 -0.3063,-0.0196 -0.710371,0.002 -1.032706,-0.004 -0.362081,0.007 -0.501822,-0.0127 -0.7962,-0.0192 -0.254107,-0.009 -0.700776,0.0238 -1.050755,0.0144 -0.322127,0.0314 -0.633692,-0.011 -0.949852,-0.025 -0.320102,-0.005 -0.442825,-0.0677 -0.759295,-0.0863 -0.155021,-0.0568 -0.7347,-0.026 -1.130495,-0.0373 -0.332225,-0.01 -0.615524,-0.004 -0.906383,-0.0199 z m 13.110177,0.46106 -0.24846,0.97371 0.15776,0.96991 0.11583,0.97023 0.0268,0.98477 0.18798,0.93675 -0.004,1.09879 -0.10666,1.01846 -0.12627,0.99488 -0.20879,0.83814 0.0808,1.1208 0.0261,0.98208 -0.0299,0.99439 -0.0446,0.96728 -0.0359,1.0414 -0.0274,0.99032 -0.0224,0.98657 -0.0173,1.01319 c 0.29969,0.002 0.48759,0.0157 0.78746,0.0175 0.21413,0.0132 0.71193,0.0317 1.05684,0.0311 0.33659,0.0291 0.56407,0.006 0.84415,-0.003 0.30303,-0.009 0.58041,0.0232 0.87874,0.0228 l -0.20655,-1.036 0.0166,-0.90427 0.0442,-0.95002 0.19902,-0.99656 -0.005,-0.94022 -0.0528,-0.96256 0.12406,-1.00686 -0.14483,-0.91347 0.18164,-0.9765 -0.104,-0.98209 c 0.1739,0.26768 0.25974,0.53499 0.43499,0.80215 0.0953,0.28045 0.32372,0.56415 0.51067,0.84414 0.13578,0.27541 0.30236,0.54284 0.48732,0.81435 0.12407,0.27321 0.35105,0.61209 0.54218,0.88581 0.15161,0.31677 0.36649,0.63112 0.54665,0.88195 0.17869,0.35955 0.18564,0.57663 0.35506,0.80474 0.0444,0.37548 0.37621,0.59081 0.57974,0.84311 0.17696,0.31488 0.37664,0.49478 0.578,0.72759 0.19264,0.26015 0.43934,0.44745 0.65403,0.68594 0.23022,0.20434 0.35201,0.51669 0.56398,0.76462 0.13172,0.27976 0.44427,0.35466 0.66749,0.6029 0.21525,0.23936 0.42231,0.62546 0.60788,0.88469 0.30222,-0.007 0.68531,0.0841 0.98737,0.0757 0.3644,0.0907 0.49182,-0.0143 0.76429,-0.0365 0.24558,-0.0137 0.56023,-0.044 0.89006,-0.0736 0.3018,-0.0271 0.6961,-0.0651 0.99378,-0.0754 l -0.0539,-1.02902 -0.0366,-0.90497 -0.11341,-1.10264 -0.0823,-0.88047 -0.10099,-1.08165 0.0348,-0.97203 -0.17733,-0.96778 -0.0595,-1.02164 -0.0411,-0.88958 -0.14359,-1.17127 0.13711,-0.94683 0.0233,-0.98745 0.0133,-1.01563 0.1681,-1.02053 -0.0278,-0.89607 0.007,-1.05119 -0.12218,-0.89735 c -0.28991,-0.0128 -0.62067,0.0435 -0.90858,0.0397 -0.31967,0.0603 -0.42679,-0.0683 -0.69725,-0.0751 -0.18193,-0.0656 -0.69124,-0.007 -1.02853,0.005 -0.29324,0.0103 -0.69174,0.1515 -0.96193,0.15755 l -0.0287,0.98971 0.16035,0.92072 -0.0211,1.04197 0.0185,0.81592 0.0995,0.98166 0.2836,0.90965 -0.24682,1.02682 0.0358,0.86243 0.0377,0.94788 c -0.18029,-0.2577 -0.35662,-0.53801 -0.53613,-0.79591 -0.17288,-0.27603 -0.34919,-0.5077 -0.52494,-0.76102 -0.17588,-0.25916 -0.37721,-0.4988 -0.55578,-0.75706 -0.19817,-0.24122 -0.44996,-0.48628 -0.62785,-0.74585 -0.26517,-0.22007 -0.24854,-0.5312 -0.4172,-0.7849 -0.084,-0.29486 -0.29906,-0.59715 -0.47904,-0.86605 -0.11214,-0.31539 -0.23639,-0.50978 -0.41204,-0.76216 -0.0802,-0.27201 -0.35823,-0.54225 -0.56092,-0.81228 -0.15957,-0.25218 -0.35057,-0.40688 -0.54683,-0.65954 -0.16547,-0.16073 -0.47223,-0.56456 -0.67468,-0.85043 -0.18675,-0.2637 -0.32388,-0.5285 -0.48413,-0.77248 -0.33115,9.9e-4 -0.77442,0.002 -1.10388,0.004 -0.41324,6.5e-4 -0.59924,0.0481 -0.88421,0.0496 -0.33989,0.0462 -0.48744,-0.009 -0.81405,-0.0199 -0.3211,-0.0111 -0.70845,0.0363 -1.0516,0.0327 z m 15.42265,-0.45072 -0.22506,1.07992 -0.0786,1.08142 0.0613,1.09778 0.0441,0.95599 0.021,0.91204 0.028,1.05374 0.15754,0.91992 0.1282,1.0456 0.087,0.94897 0.0122,1.01917 0.0451,0.98322 0.14156,0.98788 0.15599,1.00131 0.20608,1.04234 -0.0584,0.97358 0.16274,0.97747 -0.30191,0.95533 c 0.31131,-0.007 0.5953,-0.0629 0.90514,-0.0732 0.29039,-0.0574 0.67775,-0.0421 0.99602,-0.0508 0.34034,-0.0308 0.50848,0.0174 0.79989,0.0118 0.23965,0.0249 0.68605,-0.0209 1.02785,-0.0386 0.31262,-0.0163 0.52258,-0.10004 0.81917,-0.11737 l -0.13801,-0.99602 -0.0304,-0.89658 0.009,-1.11375 0.0179,-0.95229 -0.16398,-1.00598 0.0973,-0.94558 -0.19114,-1.10066 -0.0499,-0.85998 -0.0264,-1.04353 -0.0571,-1.10055 -0.0438,-0.90155 -0.0793,-0.99251 -0.0498,-0.94151 -0.21719,-1.03577 -0.0399,-0.99995 0.25416,-0.92459 -0.46396,-1.01713 c -0.2366,0.0141 -0.30429,0.0266 -0.56003,0.0408 -0.12073,0.0149 -0.63687,0.12157 -0.97902,0.13832 -0.27628,0.10105 -0.55104,-0.0175 -0.82882,-0.0172 -0.29121,-0.034 -0.68219,0.0621 -0.96237,0.0698 -0.29378,0.008 -0.34847,-0.18337 -0.63177,-0.17122 z m 6.61462,-0.24264 0.24515,1.03386 0.0661,1.06329 0.008,0.89071 0.29485,0.98356 0.0421,0.97319 0.30264,1.02286 -0.0338,1.01277 0.0733,0.9888 0.0538,1.01974 -0.0272,0.94637 -0.006,1.02123 0.1286,1.03334 0.0383,0.93778 0.0289,1.01321 0.0178,0.9779 -0.0407,1.03913 0.15868,0.97986 c 0.3037,-0.0231 0.63092,-0.06 0.93678,-0.0839 0.32067,-0.0367 0.33231,-0.0124 0.63219,-0.0363 0.12781,0.003 0.78527,0.008 1.18696,-0.0251 0.30664,0.046 0.82309,-0.0463 1.13949,-0.0746 0.44413,-0.0154 0.42259,0.0322 0.66943,0.009 0.26706,0.0449 0.48825,-0.0957 0.8286,-0.13271 0.17975,-0.0686 0.70233,-0.0621 1.08265,-0.10494 0.28212,-0.0168 0.75105,-0.0828 1.0843,-0.12187 0.37936,-0.0413 0.49016,-0.0389 0.77334,-0.0729 0.26083,-0.0125 0.71841,-0.1502 1.06365,-0.19387 0.33949,-0.1051 0.55544,-0.0756 0.85629,-0.10528 0.27564,-0.0368 0.73416,-0.1027 1.07157,-0.13134 0.3256,-0.0277 0.46968,-0.007 0.77611,-0.0407 l 0.0186,-0.80424 -0.0168,-0.97007 -0.084,-0.97282 -0.18081,-0.79335 c -0.32244,0.0357 -0.63585,0.0767 -0.958,0.11123 -0.31586,0.0408 -0.58816,0.19186 -0.91297,0.22527 -0.27619,0.15772 -0.62589,0.0427 -0.96657,0.0699 -0.28607,0.005 -0.63234,0.0659 -0.97481,0.0894 -0.28797,0.0372 -0.73087,-0.12322 -1.07085,-0.10305 -0.37053,-0.14861 -0.60967,0.0526 -0.91341,0.0941 -0.31473,0.0434 -0.64625,0.12949 -0.96648,0.1768 -0.32156,0.0475 -0.75626,0.0631 -1.07406,0.0894 l -0.10618,-0.79787 0.0658,-0.79214 0.13434,-0.83352 -0.24832,-0.81177 c 0.30934,-0.0286 0.64688,-0.06 0.9561,-0.0886 0.32946,-0.0307 0.53905,0.0281 0.8376,4.1e-4 0.26528,0.0533 0.67877,-0.11406 1.01445,-0.15829 0.32102,-0.0827 0.54648,-0.0697 0.845,-0.0994 0.30999,-0.0308 0.77785,-0.11218 1.0861,-0.14291 l -0.13789,-0.76851 -0.12164,-0.96967 -0.0303,-0.87337 -0.18026,-0.9167 c -0.30206,0.0392 -0.601,0.19131 -0.90417,0.22634 -0.29828,0.15006 -0.46288,0.0867 -0.76613,0.10738 -0.19606,0.049 -0.83344,0.0625 -1.19675,0.0738 -0.41572,0.0348 -0.51244,-0.004 -0.75978,5e-4 -0.30361,0.005 -0.74347,-0.0406 -1.06208,-0.0141 l -0.28499,-0.73581 0.13951,-0.75029 -0.0189,-0.74619 0.0429,-0.73163 c 0.29622,-0.0225 0.49406,-0.0464 0.79027,-0.0703 0.22821,-0.027 0.6298,-0.10681 0.96048,-0.13491 0.2758,-0.0787 0.60616,-0.0502 0.91119,-0.0747 0.29609,-0.0235 0.75976,0.017 1.05663,-0.006 0.4167,0.0444 0.48869,-0.0489 0.72599,-0.0733 0.29961,-0.0378 0.51632,-0.0884 0.80897,-0.12286 0.22764,-0.0602 0.46045,0.009 0.79039,-0.0222 0.29789,-0.0278 0.98559,-0.12454 1.2757,-0.15634 l -0.14997,-0.88483 -0.15599,-0.89864 -0.16331,-0.91492 -0.32693,-0.8035 c -0.2983,0.0315 -0.67339,0.1232 -0.97443,0.15405 -0.35032,0.0887 -0.55882,0.068 -0.83492,0.0949 -0.30952,0.0417 -0.58853,0.0995 -0.89093,0.12709 -0.29563,0.0701 -0.51345,0.0533 -0.82514,0.0792 -0.23472,0.0264 -0.8676,-0.0629 -1.21528,-0.0369 -0.43537,-0.0993 -0.44365,0.11665 -0.69679,0.13765 -0.26563,0.10485 -0.73073,0.0559 -1.06312,0.0816 -0.36028,0.0246 -0.56729,0.007 -0.85695,0.0286 -0.30454,-0.0137 -0.58459,0.0281 -0.90547,0.0544 -0.2717,0.006 -0.68057,0.0687 -1.01939,0.0995 -0.32765,0.0397 -0.61017,0.0157 -0.91872,0.0397 -0.3156,0.0245 -0.66199,0.0689 -0.97855,0.0902 z" transform="translate(0.90438491,-31.653469)"/><path id="path26" style="font-style:normal;font-variant:normal;font-weight:400;font-stretch:normal;font-size:25.4px;line-height:.9;font-family:'Franklin Gothic';-inkscape-font-specification:'Franklin Gothic';letter-spacing:-.642937px;display:inline;opacity:1;fill:#000;fill-opacity:1;stroke:#fff;stroke-width:2;stroke-linecap:round;stroke-linejoin:round;stroke-dasharray:none;paint-order:normal;filter:url(#filter34)" d="m 83.546801,123.37376 c -0.347913,-0.0284 -0.610722,-0.15357 -0.944377,-0.13931 -0.291545,-0.0419 -0.766812,0.13851 -1.11163,0.20982 -0.368128,0.14049 -0.670036,0.0812 -0.945188,0.16171 -0.306666,0.0897 -0.530858,0.23446 -0.83171,0.38124 -0.234206,0.11427 -0.399735,0.23743 -0.617213,0.37991 -0.168556,0.1446 -0.452587,0.3224 -0.669428,0.50374 -0.200226,0.17417 -0.389989,0.31772 -0.576796,0.51041 -0.187428,0.1683 -0.282612,0.49701 -0.458219,0.72958 -0.172325,0.22822 -0.40142,0.39313 -0.552648,0.64057 -0.153509,0.25184 -0.317824,0.5676 -0.450652,0.84316 -0.147015,0.31378 -0.259235,0.53182 -0.36395,0.81053 -0.12995,0.29942 -0.452249,0.63617 -0.537436,0.95784 -0.326498,0.34723 -0.11289,0.57215 -0.113397,0.91044 -5.13e-4,0.3423 -0.09293,0.7219 -0.132696,1.10168 -0.03944,0.37673 -0.130021,0.76404 -0.132553,1.12339 -0.073,0.37493 -0.04221,0.70368 -0.0055,1.03942 -0.02106,0.34656 -0.103407,0.68738 -0.02383,1.01027 -0.122426,0.34004 0.117795,0.66776 0.278291,0.97368 0.145405,0.27717 0.222323,0.69026 0.325309,0.95028 0.109627,0.2738 0.303271,0.45222 0.445606,0.6906 0.211552,0.16719 0.394638,0.49004 0.561294,0.70952 0.242188,0.21203 0.356434,0.38608 0.509289,0.56202 0.225718,0.19624 0.322129,0.38186 0.491377,0.55143 0.17751,0.17785 0.347311,0.29561 0.57066,0.45238 0.264476,0.18564 0.591719,0.34002 0.873568,0.48983 0.325493,0.1305 0.513582,0.24813 0.792464,0.35889 0.268828,0.0945 0.599388,0.18529 0.923631,0.26683 0.309575,0.0779 0.670976,0.10604 0.992505,0.13259 0.321013,0.0265 0.764167,0.0376 1.060212,0.0337 0.404594,-0.006 0.373481,-0.0213 0.594265,-0.057 0.265089,-0.0429 0.525546,-0.22119 0.806123,-0.32388 0.257167,-0.0941 0.733236,-0.20006 1.00188,-0.32592 0.450482,-0.11323 0.453598,-0.24038 0.644655,-0.39173 0.233677,-0.18512 0.431816,-0.36528 0.695001,-0.62702 0.113173,0.21423 0.08581,0.54732 0.200958,0.75549 -0.02689,0.33127 0.262989,0.35546 0.413905,0.53244 0.151308,0.17744 0.528882,0.43145 0.643687,0.6456 0.226648,0.0146 0.362797,-0.11422 0.533649,-0.11183 0.170852,0.002 0.166972,0.14051 0.393699,0.15421 l 0.172438,-0.91955 -0.0027,-0.92582 0.190774,-0.89094 0.235382,-0.94535 0.02363,-0.9267 0.02038,-0.93952 0.06021,-0.95604 0.09069,-0.88634 -0.06007,-0.93235 c -0.319616,-0.015 -0.748006,-0.0596 -1.066817,-0.0766 -0.393327,-0.0438 -0.497709,-0.11649 -0.777173,-0.13209 -0.27149,-0.10494 -0.782627,-0.0315 -1.122342,-0.0454 -0.391391,-0.009 -0.572484,0.01 -0.852121,-0.001 -0.321752,0.0198 -0.825132,0.0286 -1.14054,0.01 -0.471826,0.0402 -0.345291,-0.17307 -0.586764,-0.20674 -0.29339,-0.0409 -0.538231,0.0317 -0.89658,0.003 l -0.124366,0.93323 0.04769,0.87895 -0.429255,0.94672 c 0.295978,0.008 0.586793,0.021 0.871699,0.0363 0.28613,0.0161 0.490795,0.0697 0.768457,0.0889 0.278175,0.0192 0.542778,-0.001 0.819151,0.019 -0.04282,0.19792 -0.245205,0.32894 -0.280863,0.5124 -0.03566,0.18345 0.103802,0.45295 0.03269,0.61972 -0.06894,0.16484 -0.163969,0.3237 -0.300956,0.46476 -0.136987,0.14107 -0.326748,0.27214 -0.527825,0.40599 -0.198858,0.13191 -0.758822,0.24496 -1.033529,0.29475 -0.274707,0.0498 -0.37131,0.0569 -0.726796,0.0279 -0.329246,-0.0269 -0.50038,-0.11801 -0.732174,-0.23837 -0.231793,-0.12037 -0.541025,-0.2545 -0.728493,-0.45747 -0.187542,-0.20306 -0.302188,-0.46889 -0.421227,-0.77519 -0.11904,-0.30631 -0.247759,-0.62693 -0.306807,-1.02866 -0.02954,-0.20095 0.01045,-0.37259 -0.004,-0.60442 0.04681,-0.19672 -0.03427,-0.54802 -0.04312,-0.82886 -0.01276,-0.29671 -0.0035,-0.52825 0.0025,-0.79689 0.0064,-0.28797 0.04922,-0.56123 0.07801,-0.88021 0.04611,-0.51087 -0.0235,-1.00325 0.05293,-1.43788 -0.05305,-0.46183 0.274514,-0.98971 0.390189,-1.35211 0.195647,-0.44667 0.431261,-0.56722 0.547454,-0.80671 0.350429,-0.24643 0.105924,-0.43619 0.233414,-0.62262 0.03626,-0.22262 0.352774,-0.45785 0.582768,-0.60641 0.17831,-0.13354 0.370522,-0.22528 0.619504,-0.2752 0.233619,-0.0468 0.538484,-0.001 0.800424,0.0203 0.269148,0.0219 0.557233,0.0381 0.778783,0.13039 0.26374,0.0516 0.371737,0.20849 0.541206,0.37628 0.132802,0.16136 0.325208,0.38794 0.455465,0.64683 0.115831,0.2378 0.0637,0.52509 0.142573,0.83998 0.07975,0.31836 0.294694,0.7128 0.32329,1.10012 0.279951,-0.0254 0.255616,-0.0553 0.535473,-0.0841 0.0519,-0.0391 0.887134,-0.13576 1.285036,-0.1753 0.381831,-0.0839 0.365131,0.0291 0.590374,0.0119 0.201989,0.0487 0.752225,-0.19782 1.070148,-0.23804 0.289586,-0.0366 0.316321,0.0366 0.5779,0.009 -0.03625,-0.28965 -0.06864,-0.5738 -0.128535,-0.8526 -0.0455,-0.28017 -0.14205,-0.47452 -0.231589,-0.74449 -0.102074,-0.20381 -0.106359,-0.58736 -0.235522,-0.87429 -0.02161,-0.2808 -0.240218,-0.52295 -0.419351,-0.77723 -0.174748,-0.24804 -0.457429,-0.50617 -0.644478,-0.73996 -0.162307,-0.20363 -0.312083,-0.48028 -0.499851,-0.65338 -0.156889,-0.25608 -0.374233,-0.34154 -0.582504,-0.47561 -0.215548,-0.16421 -0.446917,-0.20995 -0.694623,-0.31463 -0.247088,-0.0543 -0.530416,-0.11052 -0.812854,-0.19295 -0.285575,0.011 -0.543986,-0.14734 -0.843113,-0.22479 -0.296871,-0.0769 -0.640853,-0.10265 -0.968466,-0.12935 z m 8.653742,0.81983 -0.07075,0.97555 -0.06152,1.00118 0.0033,1.0512 -0.08563,0.99823 -0.0543,1.01746 -0.08457,1.04977 -0.05807,0.86903 -0.06289,1.00785 -0.0072,0.96034 -0.100193,0.94694 -0.05438,1.07052 -0.05022,0.97663 -0.120775,0.94114 -0.01827,1.01909 -0.04464,1.01925 -0.04592,0.99085 0.266996,1.00251 c 0.293825,0.0171 0.608516,0.0544 0.905988,0.0705 0.309989,0.0365 0.619477,0.0137 0.913481,0.0284 0.325538,-0.003 0.590107,0.0672 0.881931,0.0808 0.310256,0.0528 0.606709,0.0421 0.90928,0.0545 0.309995,0.0275 0.613651,0.0711 0.92094,0.0818 0.310451,0.0578 0.737615,0.0197 1.047979,0.0276 0.393354,0.007 0.43864,0.0681 0.710518,0.0734 0.240233,0.0618 0.83534,0.0257 1.187865,0.0272 0.409621,0.0166 0.448394,-0.0174 0.716634,-0.019 0.249865,-0.02 0.656733,-0.0104 1.008373,-0.0124 0.28782,-0.008 0.64517,-0.006 0.97918,-0.005 0.30846,-0.003 0.61245,0.0125 0.93539,0.0157 0.32103,0.003 0.75002,-0.0254 1.06435,-0.0208 l -0.0143,-0.90481 -0.22956,-0.86845 0.13167,-0.87415 0.0243,-0.8834 c -0.31454,-0.005 -0.73285,-0.0725 -1.04916,-0.0781 -0.38627,-0.0678 -0.48729,-0.0137 -0.76902,-0.0178 -0.26477,-0.009 -0.71844,0.0573 -1.0645,0.0532 -0.3403,0.0629 -0.56023,-0.0656 -0.870168,-0.0735 -0.276833,-0.0643 -0.678601,0.0122 -1.021692,0.006 -0.320967,0.0217 -0.505412,-0.0329 -0.827387,-0.0431 -0.206515,-0.0291 -0.959944,0.081 -1.337368,0.0725 -0.334376,-0.008 -0.43924,-0.10234 -0.738996,-0.11414 l 0.03499,-0.81833 0.01595,-0.79454 -0.03141,-0.84385 -0.01356,-0.80655 c 0.336425,0.0117 0.673805,0.0282 1.000728,0.0391 0.331317,0.0161 0.660163,-0.0768 0.977357,-0.0671 0.332395,-0.0882 0.710177,0.0306 1.020429,0.0537 0.378585,0.0233 0.626298,0.0348 0.903629,0.0565 0.302706,0.0237 0.559776,0.0682 0.884916,0.0762 l 0.2327,-0.85436 -0.049,-0.9447 -0.0372,-0.93464 -0.30461,-0.90561 c -0.25839,0.007 -0.47317,-0.0117 -0.748873,-0.0105 -0.236453,-0.022 -0.556643,0.0677 -0.86648,0.0656 -0.2624,0.0648 -0.593718,0.0121 -0.907396,-0.003 -0.289155,0.0105 -0.706803,-0.0222 -1.01472,-0.0465 -0.309229,-0.0244 -0.61553,-8.7e-4 -0.913592,-0.0126 l 0.05469,-0.77892 0.05867,-0.78099 -0.08547,-0.72045 0.221671,-0.80081 c 0.293477,0.0109 0.522153,0.11379 0.816694,0.12398 0.248935,0.10329 0.630781,0.0462 0.948703,0.0527 0.295129,0.033 0.53199,0.0327 0.82923,0.0347 0.254326,0.0252 0.616803,0.0295 0.936174,0.0272 0.285926,0.026 0.729456,-0.008 1.033216,-0.0144 0.39001,-0.006 0.51185,-0.008 0.76033,-0.0138 0.29746,-0.003 0.76206,-0.0966 1.06056,-0.10087 0.29363,-0.004 0.27032,0.0495 0.57502,0.0543 l 0.22434,-0.84407 -0.0773,-0.91787 -0.02,-0.90298 0.0694,-0.85874 c -0.31608,-0.005 -0.77762,-0.12753 -1.09392,-0.13373 -0.4134,-0.12189 -0.52535,-0.0121 -0.79195,-0.0168 -0.31083,-0.008 -0.66337,-0.005 -0.98266,-0.0101 -0.33276,9.3e-4 -0.64705,-0.009 -0.95564,-0.0137 -0.336385,-0.004 -0.599683,-0.0241 -0.906591,-0.0294 -0.3063,-0.0196 -0.710371,0.002 -1.032706,-0.004 -0.362081,0.007 -0.501822,-0.0127 -0.7962,-0.0192 -0.254107,-0.009 -0.700776,0.0238 -1.050755,0.0144 -0.322127,0.0314 -0.633692,-0.011 -0.949852,-0.025 -0.320102,-0.005 -0.442825,-0.0677 -0.759295,-0.0863 -0.155021,-0.0568 -0.7347,-0.026 -1.130495,-0.0373 -0.332225,-0.01 -0.615524,-0.004 -0.906383,-0.0199 z m 13.110177,0.46106 -0.24846,0.97371 0.15776,0.96991 0.11583,0.97023 0.0268,0.98477 0.18798,0.93675 -0.004,1.09879 -0.10666,1.01846 -0.12627,0.99488 -0.20879,0.83814 0.0808,1.1208 0.0261,0.98208 -0.0299,0.99439 -0.0446,0.96728 -0.0359,1.0414 -0.0274,0.99032 -0.0224,0.98657 -0.0173,1.01319 c 0.29969,0.002 0.48759,0.0157 0.78746,0.0175 0.21413,0.0132 0.71193,0.0317 1.05684,0.0311 0.33659,0.0291 0.56407,0.006 0.84415,-0.003 0.30303,-0.009 0.58041,0.0232 0.87874,0.0228 l -0.20655,-1.036 0.0166,-0.90427 0.0442,-0.95002 0.19902,-0.99656 -0.005,-0.94022 -0.0528,-0.96256 0.12406,-1.00686 -0.14483,-0.91347 0.18164,-0.9765 -0.104,-0.98209 c 0.1739,0.26768 0.25974,0.53499 0.43499,0.80215 0.0953,0.28045 0.32372,0.56415 0.51067,0.84414 0.13578,0.27541 0.30236,0.54284 0.48732,0.81435 0.12407,0.27321 0.35105,0.61209 0.54218,0.88581 0.15161,0.31677 0.36649,0.63112 0.54665,0.88195 0.17869,0.35955 0.18564,0.57663 0.35506,0.80474 0.0444,0.37548 0.37621,0.59081 0.57974,0.84311 0.17696,0.31488 0.37664,0.49478 0.578,0.72759 0.19264,0.26015 0.43934,0.44745 0.65403,0.68594 0.23022,0.20434 0.35201,0.51669 0.56398,0.76462 0.13172,0.27976 0.44427,0.35466 0.66749,0.6029 0.21525,0.23936 0.42231,0.62546 0.60788,0.88469 0.30222,-0.007 0.68531,0.0841 0.98737,0.0757 0.3644,0.0907 0.49182,-0.0143 0.76429,-0.0365 0.24558,-0.0137 0.56023,-0.044 0.89006,-0.0736 0.3018,-0.0271 0.6961,-0.0651 0.99378,-0.0754 l -0.0539,-1.02902 -0.0366,-0.90497 -0.11341,-1.10264 -0.0823,-0.88047 -0.10099,-1.08165 0.0348,-0.97203 -0.17733,-0.96778 -0.0595,-1.02164 -0.0411,-0.88958 -0.14359,-1.17127 0.13711,-0.94683 0.0233,-0.98745 0.0133,-1.01563 0.1681,-1.02053 -0.0278,-0.89607 0.007,-1.05119 -0.12218,-0.89735 c -0.28991,-0.0128 -0.62067,0.0435 -0.90858,0.0397 -0.31967,0.0603 -0.42679,-0.0683 -0.69725,-0.0751 -0.18193,-0.0656 -0.69124,-0.007 -1.02853,0.005 -0.29324,0.0103 -0.69174,0.1515 -0.96193,0.15755 l -0.0287,0.98971 0.16035,0.92072 -0.0211,1.04197 0.0185,0.81592 0.0995,0.98166 0.2836,0.90965 -0.24682,1.02682 0.0358,0.86243 0.0377,0.94788 c -0.18029,-0.2577 -0.35662,-0.53801 -0.53613,-0.79591 -0.17288,-0.27603 -0.34919,-0.5077 -0.52494,-0.76102 -0.17588,-0.25916 -0.37721,-0.4988 -0.55578,-0.75706 -0.19817,-0.24122 -0.44996,-0.48628 -0.62785,-0.74585 -0.26517,-0.22007 -0.24854,-0.5312 -0.4172,-0.7849 -0.084,-0.29486 -0.29906,-0.59715 -0.47904,-0.86605 -0.11214,-0.31539 -0.23639,-0.50978 -0.41204,-0.76216 -0.0802,-0.27201 -0.35823,-0.54225 -0.56092,-0.81228 -0.15957,-0.25218 -0.35057,-0.40688 -0.54683,-0.65954 -0.16547,-0.16073 -0.47223,-0.56456 -0.67468,-0.85043 -0.18675,-0.2637 -0.32388,-0.5285 -0.48413,-0.77248 -0.33115,9.9e-4 -0.77442,0.002 -1.10388,0.004 -0.41324,6.5e-4 -0.59924,0.0481 -0.88421,0.0496 -0.33989,0.0462 -0.48744,-0.009 -0.81405,-0.0199 -0.3211,-0.0111 -0.70845,0.0363 -1.0516,0.0327 z m 15.42265,-0.45072 -0.22506,1.07992 -0.0786,1.08142 0.0613,1.09778 0.0441,0.95599 0.021,0.91204 0.028,1.05374 0.15754,0.91992 0.1282,1.0456 0.087,0.94897 0.0122,1.01917 0.0451,0.98322 0.14156,0.98788 0.15599,1.00131 0.20608,1.04234 -0.0584,0.97358 0.16274,0.97747 -0.30191,0.95533 c 0.31131,-0.007 0.5953,-0.0629 0.90514,-0.0732 0.29039,-0.0574 0.67775,-0.0421 0.99602,-0.0508 0.34034,-0.0308 0.50848,0.0174 0.79989,0.0118 0.23965,0.0249 0.68605,-0.0209 1.02785,-0.0386 0.31262,-0.0163 0.52258,-0.10004 0.81917,-0.11737 l -0.13801,-0.99602 -0.0304,-0.89658 0.009,-1.11375 0.0179,-0.95229 -0.16398,-1.00598 0.0973,-0.94558 -0.19114,-1.10066 -0.0499,-0.85998 -0.0264,-1.04353 -0.0571,-1.10055 -0.0438,-0.90155 -0.0793,-0.99251 -0.0498,-0.94151 -0.21719,-1.03577 -0.0399,-0.99995 0.25416,-0.92459 -0.46396,-1.01713 c -0.2366,0.0141 -0.30429,0.0266 -0.56003,0.0408 -0.12073,0.0149 -0.63687,0.12157 -0.97902,0.13832 -0.27628,0.10105 -0.55104,-0.0175 -0.82882,-0.0172 -0.29121,-0.034 -0.68219,0.0621 -0.96237,0.0698 -0.29378,0.008 -0.34847,-0.18337 -0.63177,-0.17122 z m 6.61462,-0.24264 0.24515,1.03386 0.0661,1.06329 0.008,0.89071 0.29485,0.98356 0.0421,0.97319 0.30264,1.02286 -0.0338,1.01277 0.0733,0.9888 0.0538,1.01974 -0.0272,0.94637 -0.006,1.02123 0.1286,1.03334 0.0383,0.93778 0.0289,1.01321 0.0178,0.9779 -0.0407,1.03913 0.15868,0.97986 c 0.3037,-0.0231 0.63092,-0.06 0.93678,-0.0839 0.32067,-0.0367 0.33231,-0.0124 0.63219,-0.0363 0.12781,0.003 0.78527,0.008 1.18696,-0.0251 0.30664,0.046 0.82309,-0.0463 1.13949,-0.0746 0.44413,-0.0154 0.42259,0.0322 0.66943,0.009 0.26706,0.0449 0.48825,-0.0957 0.8286,-0.13271 0.17975,-0.0686 0.70233,-0.0621 1.08265,-0.10494 0.28212,-0.0168 0.75105,-0.0828 1.0843,-0.12187 0.37936,-0.0413 0.49016,-0.0389 0.77334,-0.0729 0.26083,-0.0125 0.71841,-0.1502 1.06365,-0.19387 0.33949,-0.1051 0.55544,-0.0756 0.85629,-0.10528 0.27564,-0.0368 0.73416,-0.1027 1.07157,-0.13134 0.3256,-0.0277 0.46968,-0.007 0.77611,-0.0407 l 0.0186,-0.80424 -0.0168,-0.97007 -0.084,-0.97282 -0.18081,-0.79335 c -0.32244,0.0357 -0.63585,0.0767 -0.958,0.11123 -0.31586,0.0408 -0.58816,0.19186 -0.91297,0.22527 -0.27619,0.15772 -0.62589,0.0427 -0.96657,0.0699 -0.28607,0.005 -0.63234,0.0659 -0.97481,0.0894 -0.28797,0.0372 -0.73087,-0.12322 -1.07085,-0.10305 -0.37053,-0.14861 -0.60967,0.0526 -0.91341,0.0941 -0.31473,0.0434 -0.64625,0.12949 -0.96648,0.1768 -0.32156,0.0475 -0.75626,0.0631 -1.07406,0.0894 l -0.10618,-0.79787 0.0658,-0.79214 0.13434,-0.83352 -0.24832,-0.81177 c 0.30934,-0.0286 0.64688,-0.06 0.9561,-0.0886 0.32946,-0.0307 0.53905,0.0281 0.8376,4.1e-4 0.26528,0.0533 0.67877,-0.11406 1.01445,-0.15829 0.32102,-0.0827 0.54648,-0.0697 0.845,-0.0994 0.30999,-0.0308 0.77785,-0.11218 1.0861,-0.14291 l -0.13789,-0.76851 -0.12164,-0.96967 -0.0303,-0.87337 -0.18026,-0.9167 c -0.30206,0.0392 -0.601,0.19131 -0.90417,0.22634 -0.29828,0.15006 -0.46288,0.0867 -0.76613,0.10738 -0.19606,0.049 -0.83344,0.0625 -1.19675,0.0738 -0.41572,0.0348 -0.51244,-0.004 -0.75978,5e-4 -0.30361,0.005 -0.74347,-0.0406 -1.06208,-0.0141 l -0.28499,-0.73581 0.13951,-0.75029 -0.0189,-0.74619 0.0429,-0.73163 c 0.29622,-0.0225 0.49406,-0.0464 0.79027,-0.0703 0.22821,-0.027 0.6298,-0.10681 0.96048,-0.13491 0.2758,-0.0787 0.60616,-0.0502 0.91119,-0.0747 0.29609,-0.0235 0.75976,0.017 1.05663,-0.006 0.4167,0.0444 0.48869,-0.0489 0.72599,-0.0733 0.29961,-0.0378 0.51632,-0.0884 0.80897,-0.12286 0.22764,-0.0602 0.46045,0.009 0.79039,-0.0222 0.29789,-0.0278 0.98559,-0.12454 1.2757,-0.15634 l -0.14997,-0.88483 -0.15599,-0.89864 -0.16331,-0.91492 -0.32693,-0.8035 c -0.2983,0.0315 -0.67339,0.1232 -0.97443,0.15405 -0.35032,0.0887 -0.55882,0.068 -0.83492,0.0949 -0.30952,0.0417 -0.58853,0.0995 -0.89093,0.12709 -0.29563,0.0701 -0.51345,0.0533 -0.82514,0.0792 -0.23472,0.0264 -0.8676,-0.0629 -1.21528,-0.0369 -0.43537,-0.0993 -0.44365,0.11665 -0.69679,0.13765 -0.26563,0.10485 -0.73073,0.0559 -1.06312,0.0816 -0.36028,0.0246 -0.56729,0.007 -0.85695,0.0286 -0.30454,-0.0137 -0.58459,0.0281 -0.90547,0.0544 -0.2717,0.006 -0.68057,0.0687 -1.01939,0.0995 -0.32765,0.0397 -0.61017,0.0157 -0.91872,0.0397 -0.3156,0.0245 -0.66199,0.0689 -0.97855,0.0902 z" transform="translate(0.9043849,-31.65347)"/><path id="path24" style="font-style:normal;font-variant:normal;font-weight:400;font-stretch:normal;font-size:25.4px;line-height:.9;font-family:'Franklin Gothic';-inkscape-font-specification:'Franklin Gothic';letter-spacing:-.642937px;display:inline;opacity:1;fill:#05f;fill-opacity:1;stroke:none;stroke-width:.2;stroke-linecap:round;stroke-linejoin:round;stroke-dasharray:none;paint-order:normal" d="m 83.565489,123.31254 c -1.391652,-0.11343 -2.667896,0.11351 -3.839481,0.68512 -1.171032,0.57134 -2.142636,1.4865 -2.914909,2.75009 -0.767548,1.25922 -1.255072,2.81778 -1.449591,4.67565 -0.197221,1.88369 -0.0304,3.51101 0.513595,4.88447 0.548134,1.36898 1.351619,2.42717 2.409889,3.17 1.057904,0.74257 2.238218,1.16915 3.53186,1.27594 0.963038,0.0795 1.832149,-0.0231 2.603539,-0.30539 0.771502,-0.28234 1.517714,-0.78051 2.235268,-1.49411 0.339518,0.64269 0.681258,1.28485 1.025228,1.92647 0.453296,0.0293 0.906673,0.0577 1.360127,0.0851 l 0.501556,-8.2887 c -2.217575,-0.13419 -4.433789,-0.2916 -6.64812,-0.47177 l -0.22029,2.70738 c 0.827812,0.0674 1.655908,0.13157 2.484262,0.19259 -0.08563,0.39584 -0.199417,0.76052 -0.341633,1.09405 -0.137876,0.32969 -0.40742,0.62888 -0.809575,0.89657 -0.397716,0.26382 -0.953018,0.36794 -1.66399,0.3098 -0.658492,-0.0538 -1.176106,-0.2848 -1.551042,-0.69076 -0.375085,-0.40611 -0.621429,-1.01104 -0.739525,-1.81449 -0.118146,-0.80381 -0.119271,-1.8347 -0.0055,-3.09509 0.322763,-3.57605 1.418788,-5.27279 3.267124,-5.12226 1.345743,0.1096 2.091015,1.13923 2.236011,3.10317 1.399757,-0.12696 2.797132,-0.26313 4.191937,-0.40858 -0.18127,-1.44828 -0.766977,-2.78003 -1.744018,-4.0012 -0.973842,-1.22178 -2.446359,-1.90212 -4.432711,-2.06402 z m 8.580452,0.8607 -0.909077,16.91789 c 4.134304,0.22183 8.27442,0.36443 12.417216,0.42509 l 0.0525,-3.55241 c -2.57743,-0.0379 -5.154112,-0.10786 -7.729269,-0.20923 l 0.128278,-3.25305 c 1.549658,0.0611 3.099772,0.11066 4.650171,0.14861 l 0.087,-3.55192 c -1.532622,-0.0376 -3.065077,-0.0867 -4.597195,-0.14716 l 0.119238,-3.02379 c 2.383574,0.0942 4.767737,0.16058 7.151807,0.19867 l 0.0565,-3.55237 c -3.809015,-0.0611 -7.619028,-0.19538 -11.427169,-0.40033 z m 13.062309,0.42206 -0.17587,16.93807 c 1.2002,0.0123 2.4006,0.0177 3.60112,0.0161 l -0.0113,-9.59737 c 2.11804,3.19667 4.30344,6.37061 6.55754,9.51936 1.2089,-0.0273 2.41777,-0.0618 3.62656,-0.10354 l -0.58352,-16.92591 c -1.1409,0.0393 -2.28223,0.0716 -3.4239,0.0972 l 0.19364,8.60867 c -1.99175,-2.82621 -3.92795,-5.67267 -5.80961,-8.53757 -1.32463,0.004 -2.64955,-0.001 -3.97464,-0.015 z m 15.4059,-0.24569 0.72631,16.92015 c 1.53637,-0.066 3.0725,-0.14378 4.60823,-0.23351 l -0.98849,-16.9069 c -1.44781,0.0847 -2.89654,0.15808 -4.34605,0.22026 z m 6.75624,-0.37182 1.13539,16.89797 c 4.14103,-0.2779 8.27849,-0.64321 12.40926,-1.09866 l -0.39075,-3.53171 c -2.56682,0.28342 -5.13661,0.53151 -7.7086,0.74495 l -0.2695,-3.2436 c 1.54603,-0.1284 3.09115,-0.2695 4.63518,-0.42343 l -0.35265,-3.53529 c -1.52441,0.15217 -3.05003,0.29164 -4.57668,0.41855 l -0.25052,-3.015 c 2.37253,-0.19739 4.74225,-0.42548 7.10849,-0.68486 l -0.38638,-3.53213 c -3.77551,0.4145 -7.56088,0.74806 -11.35324,1.00321 z" transform="translate(0.90438491,-31.653469)"/></g></g></svg>